<svg xmlns="http://www.w3.org/2000/svg" xml:space="preserve" width="542.041" height="481.57" viewBox="0 0 143.415 127.415"><path fill="#fff" d="M61.16 127.391c-.736-.038-1.014-.082-1.008-.159.005-.058.014-.309.021-.557l.013-.452H67.203l.058.54c.031.297.042.556.023.575-.063.063-5.092.107-6.124.053zm-15.367-2.498c-1.587-.472-3.396-1.076-4.487-1.496l-.672-.26.177-.482c.097-.265.204-.512.237-.548.034-.037.515.101 1.07.307a70.156 70.156 0 0 0 4.63 1.502c.578.161.984.316.963.369-.019.05-.083.309-.143.577-.06.268-.15.483-.201.48-.051-.005-.76-.207-1.574-.45zm34.166.356a13.401 13.401 0 0 1-.158-.589l-.12-.477.73-.19c.92-.241 4.1-1.272 5.106-1.656.418-.16.787-.29.818-.29.032 0 .129.2.216.444.086.245.175.49.196.546.049.127-.18.222-2.179.909-1.312.45-2.537.83-4.422 1.372-.082.023-.166-.008-.187-.07zm-52.086-8.826c-1.099-.75-3.401-2.456-4.218-3.125l-.251-.205.367-.476.366-.475.477.385a69.237 69.237 0 0 0 4.01 2.945c.638.426 1.162.804 1.164.84.002.053-.594 1.001-.623.99-.005-.002-.586-.398-1.292-.879zm70.195.603-.322-.495-.146-.224 1.174-.806c1.33-.912 2.99-2.136 3.883-2.863l.603-.491.35.414c.191.228.349.452.349.497 0 .152-2.53 2.086-4.36 3.334-1.493 1.017-1.327.949-1.531.634zm-42.841-2.941c-.443-.164-.531-.676-.17-.987.126-.108.28-.195.345-.195.221 0 .572.38.572.621 0 .402-.389.693-.747.56zm-11.297-.166c-.348-.348-.114-.932.373-.932.344 0 .558.22.558.574 0 .472-.59.699-.931.358zm5.507-.016c-.358-.385-.093-.916.457-.916.5 0 .739.579.386.932a.603.603 0 0 1-.843-.016zm11.05-.003c-.29-.415-.033-.941.46-.941.514 0 .78.603.424.96-.237.237-.712.227-.884-.02zm5.547-.035c-.234-.298-.222-.421.072-.715s.417-.306.715-.072c.27.213.305.655.068.87-.241.218-.649.179-.855-.083zm5.544.035c-.35-.502.107-1.128.668-.915.397.151.484.654.168.97-.202.202-.677.17-.836-.055zm5.66.123c-.311-.208-.33-.793-.03-.953.438-.235.927.022.927.486 0 .384-.575.682-.897.467zm5.47-.105c-.348-.347-.115-.93.372-.93.162 0 .337.064.418.154.309.34.046.946-.41.946a.63.63 0 0 1-.38-.17zm-44.328-5.541c-.114-.115-.207-.288-.207-.385 0-.239.368-.593.616-.593.258 0 .569.33.569.605 0 .258-.322.58-.58.58-.105 0-.283-.093-.398-.207zm5.55.038c-.351-.351-.1-1.016.385-1.016.26 0 .63.348.63.593 0 .244-.37.592-.63.592a.635.635 0 0 1-.385-.169zm5.518-.026c-.239-.255-.234-.575.012-.806.39-.366.99-.119.99.409a.575.575 0 0 1-1.002.397zm5.569.04c-.402-.326-.138-1.03.385-1.03.106 0 .28.07.386.156.401.325.137 1.03-.386 1.03a.738.738 0 0 1-.385-.157zm5.508-.014c-.361-.36-.097-1.016.408-1.016.294 0 .608.312.608.605 0 .48-.674.753-1.016.411zm5.509-.054c-.096-.122-.175-.289-.175-.37 0-.253.33-.592.58-.592.383 0 .605.217.605.593 0 .244-.049.363-.188.46-.289.203-.62.166-.822-.09zm5.582.054c-.364-.364-.096-1.016.417-1.016.268 0 .599.328.599.593 0 .08-.08.247-.176.37a.554.554 0 0 1-.84.053zm5.51-.054c-.23-.29-.223-.55.02-.778.39-.366.99-.119.99.409 0 .554-.672.8-1.01.37zm5.581.054c-.351-.351-.1-1.016.385-1.016.26 0 .631.348.631.593 0 .244-.37.592-.63.592a.635.635 0 0 1-.386-.169zm5.542-.038c-.114-.115-.208-.288-.208-.385 0-.239.368-.593.617-.593.26 0 .569.332.569.613 0 .248-.346.572-.608.572-.09 0-.256-.093-.37-.207zm-55.216-.132c-.264-.194-.336-.298-.302-.43.107-.408.764-.517.956-.158.124.23.1.56-.05.71-.178.178-.203.173-.604-.122zm60.65-.058c-.123-.124-.04-.448.155-.601.203-.16.587-.168.682-.015.023.037-.102.178-.277.314-.416.325-.495.367-.56.302zm-79.96-4.915c-1.254-1.582-3.575-4.848-3.575-5.033 0-.074.93-.696.967-.647.012.015.338.498.725 1.072.687 1.021 2.337 3.267 3.036 4.132l.35.435-.457.39-.457.392zm98.886.312-.431-.343.491-.61c.749-.927 1.967-2.582 2.863-3.887l.805-1.174.224.144c.124.08.348.228.5.33l.274.184-.77 1.132c-1.275 1.875-3.314 4.568-3.459 4.568-.036 0-.26-.155-.497-.344zm-79.516-.564c-.622-.224-.529-1.124.115-1.124.355 0 .547.147.61.469.08.403-.35.79-.725.655zm5.445-.024c-.253-.102-.387-.384-.323-.676.068-.311.241-.452.554-.452.566 0 .81.689.366 1.038-.243.19-.318.202-.597.09zm5.519-.016c-.236-.134-.294-.24-.295-.542-.001-.259.212-.542.407-.542.074 0 .1-.571.1-2.181 0-2.181 0-2.182-.19-2.265a.618.618 0 0 1-.275-.274c-.084-.19-.084-.19-2.265-.19-1.867 0-2.181.017-2.181.124 0 .184-.377.4-.642.368-.128-.015-.305-.127-.398-.253-.219-.294-.139-.627.196-.817l.25-.142v-4.234l-.25-.142c-.448-.255-.424-.934.037-1.05l.214-.054V86.42l-.214-.054c-.461-.115-.485-.794-.037-1.05l.25-.142V80.941l-.25-.143c-.448-.254-.424-.934.037-1.05l.214-.053V75.322l-.187-.027c-.253-.036-.447-.398-.373-.694.033-.13.168-.296.309-.376l.25-.142v-2.118c.001-2.108 0-2.118-.187-2.201-.482-.214-.522-.911-.062-1.085l.25-.094v-4.272l-.23-.11c-.464-.223-.453-.905.018-1.084l.212-.08v-2.162c0-1.839-.018-2.161-.123-2.161-.181 0-.47-.341-.47-.555 0-.223.305-.63.472-.63.102 0 .121-.342.12-2.138v-2.138l-.25-.143c-.14-.08-.276-.244-.31-.375-.073-.296.12-.658.374-.694l.187-.028v-4.372l-.214-.054c-.461-.116-.485-.795-.037-1.05l.25-.142v-2.124l.001-2.125-.213-.097a.727.727 0 0 1-.31-.31l-.097-.212h-4.263l-.097.213a.727.727 0 0 1-.31.31l-.213.096v2.146c0 1.436.03 2.145.088 2.145.17 0 .505.418.505.631 0 .304-.281.555-.622.555-.28 0-.564-.206-.564-.41 0-.072-.575-.098-2.201-.098-1.788 0-2.201.021-2.201.113 0 .211-.31.408-.598.38-.6-.06-.764-.776-.247-1.07l.25-.143V42.164l-.25-.143c-.517-.295-.352-1.01.247-1.07.288-.028.598.168.598.379 0 .093.41.114 2.18.113h2.18l.144-.254c.08-.14.203-.253.275-.253.115 0 .131-.272.131-2.201 0-1.788-.021-2.202-.114-2.202-.21 0-.407-.31-.379-.597.06-.6.776-.765 1.07-.247l.143.25 2.124.001h2.124l.097-.212a.727.727 0 0 1 .31-.31l.213-.097v-2.146c0-1.802-.02-2.145-.12-2.145-.154 0-.472-.4-.472-.593 0-.254.33-.592.58-.592.27 0 .605.213.605.385 0 .104.34.123 2.201.123 1.93 0 2.202-.017 2.202-.131 0-.072.114-.196.253-.276l.254-.144v-2.18c0-1.77-.02-2.18-.113-2.18-.211 0-.408-.31-.38-.598.04-.394.366-.623.717-.5.144.05.304.184.356.298l.094.207h4.295l.097-.213c.256-.562 1.115-.365 1.115.256 0 .266-.21.55-.409.55-.073 0-.099.572-.099 2.188v2.187l.205.093a.53.53 0 0 1 .26.268c.053.17.108.175 2.192.175h2.137l.188-.254c.145-.196.254-.254.476-.254.368 0 .675.347.594.673-.065.26-.279.512-.435.512-.092 0-.113.405-.113 2.145v2.146l.213.097c.45.205.44.97-.012 1.083l-.201.05v2.183c0 2.072.008 2.184.16 2.224.089.023.224.138.3.255.187.285.093.637-.218.813l-.241.138v2.124l-.001 2.124.213.097c.45.205.44.97-.012 1.083l-.201.05v4.367l.2.05c.454.114.463.879.013 1.083l-.213.098v2.125c0 2.121 0 2.125.19 2.209.104.046.243.196.308.333.102.214.102.28-.002.465a.8.8 0 0 1-.308.3c-.188.084-.189.093-.189 2.218v2.135l.227.11c.442.215.433.914-.014 1.084l-.213.08v2.152c0 2.077.006 2.153.169 2.195.093.024.235.162.317.306l.15.261h2.128l2.129.001.053-.214a.532.532 0 0 1 .264-.31l.209-.095v-2.188c0-1.776-.021-2.188-.114-2.188-.19 0-.394-.295-.394-.572 0-.282.32-.613.593-.613.193 0 .592.318.592.472 0 .101.344.12 2.146.12h2.145l.097-.213a.649.649 0 0 1 .31-.294l.213-.081v-2.161c0-1.816-.02-2.161-.12-2.161-.155 0-.473-.4-.473-.593 0-.254.332-.593.58-.593.297 0 .606.219.606.429 0 .158.078.164 2.201.164 2.162 0 2.201-.003 2.201-.173 0-.104.102-.231.254-.318l.253-.144v-2.135c.001-2.128 0-2.135-.19-2.235-.254-.134-.314-.238-.315-.549-.001-.259.211-.542.407-.542.073 0 .1-.576.1-2.201 0-1.788-.022-2.202-.115-2.202-.192 0-.394-.295-.394-.578 0-.26.243-.607.424-.607.054 0 .084-.776.084-2.159 0-1.383-.03-2.159-.084-2.159-.187 0-.424-.348-.424-.622 0-.28.206-.563.41-.563.072 0 .098-.571.098-2.182 0-2.18 0-2.18-.19-2.264a.618.618 0 0 1-.274-.274c-.084-.19-.085-.19-2.256-.19h-2.172l-.053.21a.362.362 0 0 1-.263.263l-.21.052v2.193c0 1.78.021 2.192.114 2.192.224 0 .406.31.378.645-.05.598-.766.732-1.07.199l-.142-.25-2.138-.001c-1.719 0-2.138.021-2.138.112 0 .187-.377.48-.619.48-.315 0-.566-.276-.566-.622 0-.28.206-.563.409-.563.073 0 .1-.576.1-2.202 0-1.787-.022-2.2-.115-2.2-.19 0-.394-.296-.394-.573 0-.282.32-.613.593-.613.193 0 .592.318.592.472 0 .101.344.12 2.146.12h2.145l.097-.212a.727.727 0 0 1 .31-.31l.213-.097v-2.146c0-1.802-.02-2.145-.12-2.145-.154 0-.473-.4-.473-.593 0-.28.331-.593.628-.593.274 0 .558.209.558.41 0 .072.57.098 2.181.098 2.18 0 2.181 0 2.265-.19a.618.618 0 0 1 .274-.274c.19-.084.19-.084.19-2.265 0-1.77-.021-2.181-.114-2.181-.21 0-.407-.31-.378-.598.058-.593.782-.753 1.075-.238l.137.242H76.907l.138-.242c.176-.31.528-.404.813-.218.117.077.232.212.255.3.04.153.152.161 2.223.161 2.072 0 2.184-.008 2.224-.16.07-.269.442-.461.716-.37.493.162.556.85.098 1.086l-.244.126v2.157c0 1.84.019 2.156.125 2.156.068 0 .209.115.312.254l.188.254h4.212l.214-.254c.383-.455 1.045-.24 1.045.34 0 .244-.248.592-.423.592-.054 0-.085.77-.085 2.143v2.143l.254.188c.194.143.254.255.254.468 0 .277-.207.561-.409.561-.073 0-.099.576-.099 2.201 0 1.788.022 2.202.114 2.202.193 0 .394.295.394.578 0 .26-.242.607-.423.607-.054 0-.085.776-.085 2.16 0 1.382.03 2.158.085 2.158.186 0 .423.348.423.622 0 .28-.206.563-.409.563-.073 0-.099.576-.099 2.202 0 1.787.022 2.201.114 2.201.188 0 .394.293.393.557-.002.296-.064.401-.316.534-.19.1-.19.107-.19 2.256 0 1.381.03 2.156.084 2.156.193 0 .423.349.423.64 0 .244-.046.326-.253.444l-.254.144v4.244l.253.188c.194.143.254.255.254.468 0 .277-.207.561-.409.561-.073 0-.099.576-.099 2.201 0 1.788.022 2.202.114 2.202.193 0 .394.295.394.578 0 .26-.242.607-.423.607-.054 0-.085.775-.085 2.156 0 2.15 0 2.156.19 2.256.256.135.315.238.317.55 0 .258-.212.541-.408.541-.073 0-.099.576-.099 2.202 0 1.787.022 2.201.114 2.201.193 0 .394.296.394.578 0 .26-.242.607-.423.607-.054 0-.085.777-.085 2.16 0 1.382.03 2.158.085 2.158.186 0 .423.348.423.622 0 .28-.206.564-.409.564-.073 0-.099.575-.099 2.201 0 1.93.016 2.201.131 2.201.072 0 .196.115.275.254l.144.253h2.122l2.122.001.188-.254c.103-.14.244-.254.312-.254.107 0 .125-.318.125-2.18 0-2.18 0-2.182-.19-2.266a.594.594 0 0 1-.301-.78c.222-.463.904-.452 1.083.018l.081.213h2.161c1.816 0 2.161-.02 2.161-.12 0-.154.4-.472.593-.472.265 0 .593.33.593.598 0 .24-.25.587-.424.587-.054 0-.085.786-.085 2.188v2.187l.21.096c.433.197.34.897-.142 1.066-.261.092-.653-.115-.723-.381-.04-.153-.151-.16-2.193-.16H94.81l-.08.212a.648.648 0 0 1-.295.31l-.214.097v4.264l.214.097c.464.211.424.894-.062 1.065-.285.1-.657-.05-.72-.29-.042-.162-.124-.168-2.222-.168h-2.178l-.095.21c-.177.388-.824.39-1.031.004l-.115-.213h-4.257l-.188.254c-.103.14-.244.254-.312.254-.107 0-.125.32-.125 2.192v2.192l.201.05c.451.113.463.878.016 1.082-.283.129-.709-.046-.778-.32l-.05-.201h-2.182c-2.072 0-2.185.008-2.225.16-.07.267-.46.474-.722.382-.512-.18-.577-.897-.098-1.078l.25-.094V97.512l-.214-.054a.532.532 0 0 1-.31-.263l-.096-.21h-2.145c-1.374 0-2.146.031-2.146.085 0 .187-.348.424-.621.424-.351 0-.564-.219-.564-.579 0-.26.242-.607.423-.607.055 0 .085-.776.085-2.159 0-1.383-.03-2.159-.085-2.159-.186 0-.423-.348-.423-.622 0-.28.206-.563.409-.563.073 0 .1-.576.1-2.201 0-1.788-.022-2.202-.115-2.202-.192 0-.394-.295-.394-.578 0-.26.242-.607.423-.607.055 0 .085-.776.085-2.16 0-1.382-.03-2.158-.085-2.158-.186 0-.423-.348-.423-.622 0-.28.206-.563.409-.563.073 0 .1-.576.1-2.202 0-1.787-.022-2.201-.115-2.201-.179 0-.394-.288-.394-.53 0-.33.087-.491.308-.575l.2-.076v-2.14l-.001-2.14-.253-.144c-.14-.08-.254-.204-.254-.276 0-.114-.271-.13-2.201-.13-1.93 0-2.202.016-2.202.13 0 .072-.114.196-.253.276l-.253.144V74.083l.253.144c.215.123.253.196.253.481 0 .4-.17.603-.507.603-.352 0-.512-.083-.598-.308l-.076-.2h-4.28l-.144.254c-.086.152-.213.254-.317.254-.17 0-.174.04-.174 2.201 0 1.772.022 2.201.113 2.201.18 0 .48.375.48.6 0 .116-.06.294-.132.398-.26.372-1.053.174-1.053-.263 0-.129-.198-.142-2.161-.142h-2.161l-.081.213a.648.648 0 0 1-.295.31l-.213.097v4.264l.213.097c.45.205.441.97-.012 1.083l-.2.05v4.366l.2.05c.453.115.462.88.012 1.084l-.213.097v2.124l.001 2.125.242.137c.531.302.353 1.021-.266 1.074-.255.022-.334-.015-.495-.233l-.191-.259h-2.122l-2.122.001-.144.254c-.08.14-.203.253-.275.253-.115 0-.131.272-.131 2.202 0 1.885.018 2.201.125 2.201.183 0 .4.377.368.642-.015.128-.128.305-.253.398-.294.218-.627.139-.817-.196l-.143-.25h-2.14l-2.14-.001-.078.206c-.132.345-.482.47-.807.285zm11.076 0c-.101-.049-.23-.2-.288-.338-.089-.215-.08-.28.06-.468.307-.41.736-.405 1.01.014.118.18.125.258.042.46a.727.727 0 0 1-.31.338c-.247.112-.272.112-.514-.005zm5.445-.074c-.256-.202-.293-.533-.091-.822.098-.14.217-.188.46-.188.566 0 .791.572.386.977-.254.254-.462.263-.755.033zm5.563.05a.607.607 0 0 1-.187-.744c.133-.254.237-.313.548-.315.322-.002.542.225.54.556-.001.295-.063.401-.31.53-.245.13-.376.124-.59-.027zm5.535-.045c-.457-.36-.21-1.043.378-1.043.487 0 .747.572.43.946-.229.27-.54.307-.808.097zm16.73.084c-.586-.234-.406-1.127.228-1.127.333 0 .593.27.593.617 0 .38-.447.659-.82.51zm5.429-.109c-.424-.365-.206-.99.345-.99.55 0 .768.625.344.99-.125.107-.28.195-.344.195-.065 0-.22-.088-.345-.195zm-66.5-.059c-.356-.356-.109-.931.4-.931.255 0 .532.286.532.55a.63.63 0 0 1-.17.381.63.63 0 0 1-.38.17.63.63 0 0 1-.382-.17zm71.973-.054c-.096-.122-.175-.27-.175-.327 0-.22.35-.55.585-.55.484 0 .684.574.32.916-.262.246-.517.233-.73-.039zM27.257 97.27c-.23-.293-.222-.5.032-.754.23-.23.389-.257.666-.11.244.128.309.236.31.516.003.534-.677.77-1.008.348zm5.582.054c-.352-.351-.1-1.016.384-1.016.272 0 .632.351.632.616 0 .264-.333.57-.62.57a.65.65 0 0 1-.396-.17zm27.648-.019c-.301-.43-.04-.997.46-.997a.68.68 0 0 1 .424.17c.382.382.095 1.015-.46 1.015-.206 0-.331-.055-.424-.188zm5.59.055c-.526-.525.14-1.336.76-.93.261.171.291.707.052.923-.196.177-.639.181-.813.007zm33.24-.063c-.102-.107-.184-.28-.184-.384 0-.239.359-.605.592-.605.239 0 .593.368.593.616 0 .258-.33.57-.605.57-.117 0-.295-.089-.396-.197zm-77.301-.262c-.304-.423-.326-.518-.135-.59.428-.165.798.047.798.456 0 .225-.184.508-.33.508-.036 0-.186-.168-.333-.374zm82.762.025c-.071-.273.082-.572.325-.633.334-.084.338.004.017.425-.264.345-.3.367-.342.208zm-82.835-5.156c-.58-.231-.405-1.1.221-1.1.269 0 .6.329.6.595 0 .353-.473.644-.82.505zm5.346-.122c-.23-.23-.256-.388-.11-.665.13-.25.236-.31.545-.311.323-.002.543.225.541.556-.001.294-.063.4-.31.53-.277.147-.436.12-.666-.11zm5.603.033c-.447-.352-.215-1.01.355-1.01.555 0 .794.583.4.977-.254.254-.462.263-.755.033zm27.76.074c-.236-.134-.294-.24-.295-.542-.002-.34.228-.542.614-.542a.56.56 0 0 1 .346 1.01c-.25.196-.417.215-.665.074zm5.405-.116c-.176-.176-.207-.27-.164-.487.065-.331.253-.481.604-.481.344 0 .547.228.547.615 0 .55-.582.758-.987.353zm39.087.157c-.415-.152-.544-.576-.288-.942.19-.273.673-.227.906.086.146.197.155.261.066.476-.08.193-.432.475-.54.433l-.144-.053zM3.86 85.709c-.982-2.693-1.874-5.667-1.724-5.755.052-.03.313-.113.58-.182l.486-.127.091.352c.262 1.014 1.093 3.651 1.53 4.853.274.753.498 1.402.498 1.444 0 .04-.2.145-.445.232l-.54.19c-.056.02-.252-.395-.476-1.007zm118.767.852c-.233-.094-.454-.2-.49-.235-.036-.036.066-.41.227-.833.386-1.012 1.417-4.19 1.658-5.112l.19-.729.52.127c.285.07.549.153.585.185.113.1-1.452 5.124-2.022 6.489-.14.333-.118.33-.668.108zm-106.37-.355c-.348-.37-.137-.905.359-.905.51 0 .749.572.389.932-.225.224-.521.214-.747-.027zm5.49.027a.554.554 0 0 1 .053-.84c.293-.231.5-.222.754.031.388.388.156.978-.384.978a.68.68 0 0 1-.424-.17zm5.509-.054c-.23-.293-.222-.5.032-.755.23-.23.389-.256.666-.11.249.131.309.236.31.546.003.536-.67.749-1.008.319zm5.552.068c-.316-.35-.025-1.03.441-1.03.255 0 .605.365.605.63 0 .478-.724.755-1.046.4zm27.686 0c-.318-.352-.055-1.03.4-1.03.512 0 .809.576.514.997-.17.242-.707.261-.914.033zm5.593.05c-.079-.06-.166-.228-.195-.376-.106-.536.598-.919.982-.535.216.216.224.686.014.876-.183.165-.601.183-.801.034zm38.802-.064a.554.554 0 0 1 .054-.84c.293-.231.5-.222.754.031.254.254.263.462.032.755a.554.554 0 0 1-.84.054zm5.557-.006a.51.51 0 0 1 .319-.926c.324 0 .56.217.557.515-.002.252-.072.363-.31.489-.252.132-.308.124-.566-.078zm-94.076-5.43c-.237-.134-.294-.24-.295-.55-.001-.184.058-.312.187-.402.402-.282.913-.057.91.402 0 .318-.06.422-.31.554-.225.12-.277.119-.492-.004zm5.376-.068a.554.554 0 0 1 .054-.84c.293-.23.5-.222.754.032.388.388.156.978-.384.978a.68.68 0 0 1-.424-.17zm5.51-.053c-.23-.293-.222-.5.032-.755.23-.23.389-.256.666-.11.249.131.309.236.31.545.003.537-.67.75-1.008.32zm5.582.053c-.217-.216-.224-.686-.015-.876.368-.333 1.03-.051 1.03.438 0 .506-.662.792-1.015.438zm33.237.037c-.5-.501.091-1.302.708-.957.277.155.348.682.125.929-.178.197-.648.213-.833.028zm27.64-.096c-.212-.269-.174-.58.096-.808.531-.45 1.263.26.832.808a.52.52 0 0 1-.464.229.52.52 0 0 1-.465-.23zm5.64.053c-.43-.338-.185-1.01.37-1.01.554 0 .8.672.369 1.01-.123.097-.29.176-.37.176-.08 0-.247-.08-.37-.176zm5.553.044c-.403-.282-.124-1.054.382-1.054.24 0 .615.352.615.578 0 .089-.08.262-.176.385-.202.256-.533.293-.821.091zm5.484-.038a.554.554 0 0 1 .054-.84c.273-.214.465-.222.695-.027.27.228.307.54.097.808a.554.554 0 0 1-.846.06zm-94.189-5.585c-.223-.246-.19-.594.076-.823.125-.108.28-.196.345-.196.065 0 .22.088.344.196.424.364.207.99-.344.99a.597.597 0 0 1-.42-.167zm5.597-.009c-.148-.116-.223-.257-.223-.417 0-.268.333-.593.608-.593.216 0 .577.372.577.593 0 .222-.361.593-.577.593-.09 0-.262-.08-.385-.176zm5.48-.04c-.167-.167-.204-.268-.162-.445.062-.264.337-.525.553-.525.255 0 .595.33.593.578-.001.274-.067.382-.31.51-.28.147-.436.12-.674-.118zm5.532.065c-.18-.2-.186-.641-.01-.817.5-.501 1.3.09.956.708-.16.286-.726.351-.946.109zm60.95.018c-.076-.076-.134-.276-.134-.461 0-.571.573-.788.987-.374.176.175.207.268.165.486-.03.149-.117.318-.195.376-.198.147-.664.132-.824-.027zm5.501-.056c-.202-.288-.165-.62.092-.821.122-.097.289-.176.37-.176.253 0 .592.332.592.58 0 .384-.217.606-.593.606-.244 0-.363-.049-.46-.189zm5.59.027c-.234-.259-.147-.69.18-.896l.273-.17.003-2.138c.003-1.845-.014-2.138-.124-2.138-.212 0-.466-.322-.466-.592 0-.555.672-.8 1.01-.37.097.123.176.294.176.381 0 .15.108.158 2.149.158h2.15l.064-.275c.106-.446.143-4.99.042-5.09-.048-.048-.087-.206-.087-.35s.039-.302.087-.35c.1-.1.064-4.644-.042-5.09l-.065-.275h-2.149c-2.041 0-2.15.008-2.15.158 0 .087-.078.258-.175.38-.338.431-1.01.186-1.01-.369 0-.31.263-.592.55-.592h.212v-4.318h-.249c-.445 0-.669-.586-.38-.997.171-.246.646-.257.883-.02.093.094.17.208.17.255 0 .054.776.084 2.159.084 1.383 0 2.159-.03 2.159-.084 0-.174.347-.424.59-.424.181 0 .304.071.439.254.156.211.247.254.537.254 1.104 0 2.037.378 2.832 1.145.65.628 1.056 1.38 1.192 2.213.045.272.082 2.05.082 3.95 0 2.282.029 3.437.085 3.403.053-.033.085.128.085.423 0 .296-.032.456-.085.423-.056-.034-.085.86-.085 2.62v2.672h4.234V74.803h-8.692l-.115.214c-.207.386-.854.383-1.031-.005l-.096-.21h-2.145c-1.374 0-2.145.03-2.145.085 0 .047-.077.16-.17.254-.22.22-.686.224-.882.008zm20.125-.468c-1.547-.375-2.8-1.633-3.07-3.086-.054-.284-.085-3.27-.085-7.916.001-6.284.021-7.544.127-7.991.32-1.36 1.18-2.328 2.56-2.88l.572-.23 7.154-.025c5.077-.017 7.322.004 7.732.072 1.664.279 3.056 1.628 3.352 3.249.122.666.126 14.764.005 15.542-.18 1.158-1.013 2.366-1.997 2.897-.925.5-.757.49-8.665.482-5.535-.006-7.346-.032-7.685-.114zm13.439-11.012v-5.715H128.173v11.43H138.418zM16.239 69.65c-.401-.325-.137-1.03.386-1.03.106 0 .28.071.386.157.401.325.137 1.03-.386 1.03a.738.738 0 0 1-.386-.157zm5.508-.013c-.36-.36-.097-1.016.409-1.016.294 0 .607.312.607.604 0 .481-.674.754-1.016.412zm5.542-.039c-.254-.253-.263-.461-.032-.754.338-.43 1.01-.185 1.01.37 0 .54-.59.772-.978.384zm5.55.039c-.217-.216-.224-.686-.015-.876.368-.333 1.03-.052 1.03.437 0 .522-.65.803-1.015.439zm60.973.021c-.437-.369-.2-1.037.368-1.037.362 0 .67.349.593.674-.064.271-.342.511-.593.511a.676.676 0 0 1-.368-.148zm5.505-.048c-.367-.39-.12-.989.408-.989.536 0 .787.635.397 1.001-.254.239-.574.234-.805-.012zM.03 66.907c-.06-.415-.021-6.722.043-6.769.023-.016.29-.017.592 0l.55.03v6.996l-.423.05c-.709.086-.704.088-.762-.307zm16.41-2.694c-.256-.095-.477-.454-.41-.665.21-.66 1.145-.561 1.145.12 0 .402-.375.679-.736.545zm5.561.03c-.473-.17-.579-.736-.194-1.038.38-.299.956-.018.956.464 0 .359-.44.69-.762.574zm5.446-.025c-.578-.23-.408-1.128.213-1.128.355 0 .607.24.607.579 0 .417-.43.705-.82.549zm5.519-.013c-.236-.137-.294-.243-.294-.536 0-.302.06-.407.313-.54.375-.197.87.115.87.55 0 .407-.541.728-.89.526zm60.924-.006c-.43-.224-.4-.915.047-1.085.471-.179.95.235.83.717-.095.377-.518.554-.877.368zm5.666.044c-.433-.156-.573-.71-.253-.999.375-.34 1.015-.072 1.015.425 0 .359-.44.69-.762.574zm5.588 0c-.473-.171-.58-.736-.194-1.038.379-.299.956-.019.956.464 0 .359-.44.69-.762.574zm-93.726-.574c0-.24.033-.37.085-.339.046.03.084.181.084.339 0 .157-.038.31-.084.339-.052.032-.085-.1-.085-.34zm4.821-5.11c-.401-.324-.137-1.028.386-1.028.106 0 .28.07.386.156.401.325.137 1.029-.386 1.029a.738.738 0 0 1-.386-.156zm5.508-.012a.68.68 0 0 1-.17-.424c0-.554.672-.8 1.01-.37.23.292.223.55-.02.779-.245.23-.598.236-.82.015zm5.51-.054c-.097-.123-.176-.29-.176-.37 0-.08.08-.247.176-.37.352-.448 1.01-.183 1.01.408 0 .54-.673.76-1.01.332zm5.6.091c-.14-.098-.188-.217-.188-.46 0-.245.049-.364.188-.462.43-.301.998-.04.998.461 0 .5-.567.763-.998.461zm27.668-.037a.68.68 0 0 1-.17-.424c0-.53.654-.792 1.013-.407.36.386.101 1-.42 1a.68.68 0 0 1-.423-.17zm33.19-.06a.586.586 0 0 1 .465-.956c.502 0 .774.561.464.956a.52.52 0 0 1-.464.229.52.52 0 0 1-.465-.23zm5.587.06a.578.578 0 0 1 .026-.832c.255-.24.575-.234.806.012.366.39.119.989-.409.989a.68.68 0 0 1-.423-.17zm-83.004-5.51c-.442-.347-.217-1.01.342-1.01.536 0 .747.632.33.99-.28.24-.388.244-.672.02zm5.503 0c-.43-.337-.208-1.01.332-1.01.578 0 .826.574.422.978-.253.254-.461.263-.754.032zm5.565.055c-.323-.231-.321-.783.003-1 .177-.118.617-.065.757.09.166.183.184.601.035.802-.154.206-.577.264-.795.108zm5.6.02c-.236-.134-.294-.24-.295-.542-.002-.34.228-.543.614-.543.543 0 .758.582.362.978-.226.226-.418.256-.681.106zm27.612-.075a.516.516 0 0 1-.223-.452c0-.355.224-.558.616-.558.351 0 .57.232.57.606 0 .248-.339.58-.593.58-.08 0-.247-.08-.37-.176zm5.498-.023c-.24-.239-.267-.396-.12-.675.132-.25.236-.309.553-.31.357-.002.535.193.535.587 0 .362-.109.487-.49.563-.209.042-.304.01-.478-.165zm27.701.05c-.215-.241-.223-.696-.015-.904.137-.137.6-.178.765-.068.051.034.14.15.195.257.124.234-.009.735-.215.814-.25.095-.599.048-.73-.099zm5.579-.027c-.257-.202-.294-.533-.092-.822.098-.14.217-.188.461-.188.376 0 .593.222.593.606 0 .248-.339.58-.593.58-.08 0-.247-.08-.37-.176zM2.674 47.583a9.064 9.064 0 0 1-.521-.156c-.134-.052.164-1.193.9-3.443.818-2.504 1.175-3.403 1.327-3.34.076.03.302.114.504.184.201.07.384.175.406.232.022.057-.042.31-.142.561-.332.838-1.183 3.406-1.528 4.607-.186.652-.359 1.252-.383 1.333-.05.17-.029.169-.563.022zm121.272-.868a76.41 76.41 0 0 0-1.53-4.719c-.188-.507-.312-.947-.277-.977.156-.131.99-.419 1.044-.36.21.229 2.288 6.665 2.18 6.75a4.35 4.35 0 0 1-.45.122c-.232.056-.483.119-.556.14-.106.032-.19-.163-.411-.956zm-107.731.755c-.144-.16-.186-.577-.076-.743.307-.46 1.036-.21 1.036.356 0 .477-.644.736-.96.387zm5.532-.015a.554.554 0 0 1 .054-.84c.293-.23.5-.222.754.032.388.388.156.978-.384.978a.68.68 0 0 1-.424-.17zm38.748.015c-.318-.352-.055-1.03.4-1.03.512 0 .809.575.514.996-.17.243-.707.262-.914.034zm5.593.049c-.079-.058-.166-.227-.195-.376-.043-.218-.012-.31.164-.486.247-.248.525-.278.799-.086.242.17.261.707.033.913-.183.166-.601.184-.801.035zm27.68-.022c-.476-.475.056-1.266.664-.99.589.269.397 1.118-.252 1.118-.157 0-.342-.058-.412-.128zm5.534-.042a.554.554 0 0 1 .054-.84c.122-.097.289-.176.37-.176.08 0 .246.08.369.176.43.338.185 1.01-.37 1.01a.68.68 0 0 1-.423-.17zm5.559.015c-.3-.332-.121-.884.323-.995.565-.142.929.592.504 1.017-.182.182-.654.17-.827-.022zm5.532-.015a.554.554 0 0 1 .06-.845.557.557 0 0 1 .786.785.554.554 0 0 1-.846.06zm-88.592-5.51a.519.519 0 0 1-.223-.423c0-.548.673-.79 1.01-.363.23.293.221.5-.033.754-.253.254-.461.263-.754.033zm71.993.02c-.41-.331-.148-1.03.386-1.03.338 0 .578.252.578.608a.598.598 0 0 1-.578.578.738.738 0 0 1-.386-.156zm5.562-.02c-.43-.338-.185-1.01.37-1.01.554 0 .8.672.369 1.01-.123.097-.29.176-.37.176-.08 0-.247-.079-.37-.175zm5.66.075c-.23-.13-.293-.24-.294-.513-.003-.534.677-.77 1.008-.348.23.293.222.5-.032.754-.226.226-.418.256-.681.107zm5.537-.014c-.25-.125-.4-.514-.275-.715.394-.631 1.196-.283 1.014.44-.067.267-.461.413-.739.275zm-94.35-.167c-.282-.431.216-1.04.66-.806.242.128.31.237.31.504.004.476-.71.698-.97.302zm5.544-5.475c-.344-.344-.114-.932.365-.93.32.002.422.06.559.32.288.547-.479 1.055-.924.61zm5.557.042c-.304-.305-.22-.83.156-.973.577-.22 1.102.553.652.96-.194.175-.638.182-.808.013zm66.42-.091c-.213-.27-.217-.31-.055-.623.233-.452.86-.406 1.06.078.098.236.092.291-.059.494-.247.332-.706.357-.946.05zm5.54.03c-.202-.289-.165-.62.092-.821.122-.097.296-.176.385-.176.231 0 .577.378.577.631 0 .502-.771.77-1.054.366zm5.588 0c-.295-.422-.064-.912.43-.912.522 0 .767.472.453.871-.234.298-.688.32-.883.041zM27.29 30.822c-.114-.114-.208-.287-.208-.385 0-.244.37-.592.631-.592.495 0 .738.668.37 1.012-.248.231-.54.218-.793-.035zm5.55.039c-.361-.36-.097-1.016.408-1.016.278 0 .608.307.608.565 0 .51-.663.804-1.016.45zm27.686 0c-.367-.367-.096-1.016.423-1.016.326 0 .593.266.593.592a.594.594 0 0 1-.593.593.68.68 0 0 1-.423-.17zm33.269.013c-.39-.316-.15-1.03.347-1.03.347 0 .617.26.617.593 0 .32-.267.593-.578.593a.738.738 0 0 1-.386-.156zm5.562-.02c-.283-.222-.295-.574-.027-.825.107-.101.291-.184.408-.184.271 0 .58.326.58.613 0 .24-.342.572-.592.572-.08 0-.247-.079-.37-.175zm5.69.059a.524.524 0 0 1-.21-.765c.197-.301.306-.272.632.17.215.293.26.41.187.496-.14.169-.387.209-.608.099zm-82.873-.031c.001-.035.114-.197.252-.36l.249-.296.002.227a.573.573 0 0 1-.13.36c-.138.137-.377.181-.373.069zm-11.578-1.4c-.243-.15-.443-.315-.444-.368-.006-.187 2.57-3.777 3.988-5.56.13-.164.152-.166.34-.04a6.5 6.5 0 0 1 .477.375l.279.24-.412.509a65.361 65.361 0 0 0-2.878 3.916c-.447.663-.833 1.205-.86 1.203-.026-.002-.247-.125-.49-.275zm105.344-.25c-.657-1.022-1.772-2.577-2.759-3.847l-.998-1.285.447-.345c.246-.19.466-.345.49-.345.129 0 2.426 3.075 3.52 4.711l.688 1.028-.46.306c-.253.168-.489.305-.525.304-.035 0-.217-.237-.403-.527zm-82.905-3.797c-.358-.132-.49-.705-.217-.94.248-.213.444-.243.703-.109a.558.558 0 0 1-.061 1.034.74.74 0 0 1-.425.015zm5.466-.037a.566.566 0 0 1 .012-1.015c.402-.208.846.059.846.509a.571.571 0 0 1-.858.506zm16.637.03c-.665-.322-.203-1.368.48-1.085.484.2.502.873.03 1.088-.246.112-.272.112-.51-.003zm5.642.038c-.433-.156-.573-.71-.253-.998.375-.34 1.015-.073 1.015.424 0 .359-.44.69-.762.574zm5.407-.068c-.44-.238-.36-.92.126-1.081.192-.064.287-.046.466.086.597.445.06 1.347-.592.995zm22.22.043c-.367-.147-.47-.611-.209-.935.193-.238.618-.257.86-.039.454.412-.074 1.203-.65.974zm5.547-.018c-.395-.132-.466-.704-.121-.99.507-.42 1.22.344.776.834-.186.205-.375.25-.655.156zm-66.618-.15c-.234-.234-.214-.347.118-.669.258-.25.308-.268.487-.173.25.132.324.24.325.482.002.253-.285.53-.549.53a.63.63 0 0 1-.38-.17zm72.02.042a.556.556 0 0 1 .32-.959c.548-.065.818.712.355 1.021-.16.107-.54.071-.674-.062zM38.38 19.73c-.114-.114-.207-.288-.207-.385 0-.221.361-.593.577-.593.278 0 .608.325.608.6 0 .534-.592.763-.978.378zm5.55.038c-.513-.513.196-1.335.749-.867.291.246.318.57.067.82-.259.26-.585.279-.816.047zm5.518-.026c-.101-.108-.184-.292-.184-.409 0-.268.325-.58.604-.58.274 0 .581.327.581.619 0 .51-.645.75-1.001.37zm5.53.025c-.219-.241-.2-.666.039-.858.397-.322.964-.074.964.422 0 .355-.24.607-.579.607a.595.595 0 0 1-.424-.17zm5.547.001c-.361-.36-.097-1.016.408-1.016.293 0 .608.312.608.604 0 .498-.662.767-1.016.412zm5.509-.053c-.23-.293-.222-.501.032-.755.406-.405.978-.18.978.385 0 .244-.049.363-.188.46-.289.203-.62.166-.822-.09zm5.582.053a.68.68 0 0 1-.17-.423c0-.554.672-.8 1.01-.37.23.291.223.55-.02.779-.245.23-.598.236-.82.014zm5.518-.026c-.241-.257-.233-.525.024-.782.388-.388.977-.156.977.385a.575.575 0 0 1-1.001.397zm5.573.026c-.351-.35-.1-1.016.385-1.016.26 0 .631.348.631.593s-.37.593-.63.593a.635.635 0 0 1-.386-.17zm5.51-.053c-.23-.293-.222-.501.032-.755s.461-.263.754-.032c.283.222.295.574.028.826-.27.252-.597.236-.814-.04zm5.709.121c-.23-.13-.294-.239-.295-.499-.001-.203.22-.5.374-.5.106 0 .725.515.725.604 0 .121-.4.497-.525.494a.766.766 0 0 1-.28-.099zm-60.749-.246c.481-.417.593-.456.593-.212 0 .299-.217.476-.578.472l-.311-.003zm-9.39-4.828c-.194-.242-.34-.468-.328-.502.1-.258 5.432-4.144 5.687-4.144.136 0 .68.932.59 1.013-.04.036-.492.344-1.004.685a60.114 60.114 0 0 0-3.598 2.606l-.901.707c-.064.05-.214-.073-.447-.365zm79.198.216c-.683-.574-3.013-2.301-4.106-3.043l-1.256-.853c-.05-.036.574-.966.648-.966.205 0 4.543 3.12 5.496 3.952l.273.24-.4.441-.401.443zm-47.927-.739c-.424-.365-.207-.99.344-.99.551 0 .769.625.345.99-.125.107-.28.195-.345.195-.064 0-.22-.088-.344-.195zm5.513-.004c-.397-.398-.195-.986.34-.986.756 0 .846.972.105 1.147-.177.042-.278.005-.445-.161zm5.653.099c-.101-.05-.23-.202-.287-.339-.09-.216-.08-.28.066-.476.209-.282.644-.349.88-.136.243.22.212.66-.062.876-.248.195-.328.205-.597.075zm5.646.04c-.618-.224-.53-1.127.11-1.124.318.002.423.06.555.31.134.256.122.404-.051.604-.166.19-.422.279-.614.21zm-27.978-.213c-.195-.278-.16-.538.098-.741.388-.306.871-.07.871.425 0 .474-.699.702-.969.316zm5.492-.022c-.381-.582.42-1.213.893-.705.362.389.118.916-.423.916-.26 0-.362-.046-.47-.211zm27.735.041c-.216-.216-.214-.427.006-.708.465-.59 1.31.073.878.69-.172.245-.647.256-.884.018zm5.55-.019c-.273-.39-.033-.912.42-.912.463 0 .732.655.395.96-.227.206-.654.18-.814-.048zM40.976 5.101c-.04-.105-.135-.34-.211-.521-.076-.182-.126-.343-.11-.359.061-.061 1.891-.716 3.241-1.159 1.803-.591 3.498-1.07 3.541-1 .056.09.299 1.061.272 1.088-.013.013-.67.213-1.457.442-1.412.413-3.716 1.176-4.59 1.522-.558.221-.597.22-.686-.013zm44.653-.032c-1.061-.432-4.107-1.413-5.6-1.804l-.352-.092.126-.486c.07-.267.152-.529.183-.581.06-.102.49.007 2.74.697 1.192.365 3.928 1.326 4.01 1.407.021.022-.046.274-.149.56-.124.344-.232.519-.318.514-.073-.004-.36-.1-.64-.215zM60.168.635c-.016-.303-.016-.57.001-.593.047-.065 7.022-.05 7.087.014.031.032.031.298 0 .593l-.058.536h-7z"/></svg>
