<svg xmlns="http://www.w3.org/2000/svg" width="474" height="385" fill="none" viewBox="0 0 474 385"><path fill="url(#a)" d="M296.5 377.18H176.56l6.86-51.6h107.2l5.88 51.6Z"/><path fill="url(#b)" d="M0 282.36v31.87c0 6.47 5.29 11.76 11.77 11.76h449.52c6.46 0 11.76-5.29 11.76-11.76v-31.87H0Z"/><path fill="url(#c)" d="M473.05 11.76c0-6.47-5.29-11.76-11.76-11.76H11.77C5.3 0 0 5.29 0 11.76v270.59h473.05V11.76Z"/><path fill="url(#d)" d="M456.38 15.69H16.67v250.98h439.71V15.69Z"/><path fill="#fff" d="M53.96 52.105c.134-.28.302-.488.505-.62a1.32 1.32 0 0 1 .744-.206c.527 0 .898.205 1.113.615.219.407.328 1.174.328 2.303V58h-.984v-3.756c0-.926-.053-1.5-.158-1.722-.102-.227-.29-.34-.563-.34-.312 0-.527.12-.644.363-.114.238-.17.805-.17 1.7V58h-.984v-3.756c0-.937-.057-1.516-.17-1.734-.11-.219-.309-.328-.598-.328-.285 0-.484.12-.598.363-.11.238-.164.805-.164 1.7V58h-.978v-6.563h.978V52c.13-.234.29-.412.48-.533.196-.125.417-.188.663-.188.297 0 .543.069.738.205.2.137.354.344.463.621ZM58.613 48.883h1.114v5.28l2.83-2.725h1.312l-2.584 2.472L64.273 58h-1.318l-2.426-3.387-.802.756V58h-1.114v-9.117ZM69.488 52.275v-3.392h1.078V58h-1.078v-.826a1.89 1.89 0 0 1-.72.744c-.297.168-.641.252-1.032.252-.793 0-1.418-.307-1.875-.92-.453-.617-.68-1.467-.68-2.549 0-1.066.23-1.902.686-2.508.457-.609 1.08-.914 1.87-.914.394 0 .742.086 1.042.258.301.168.537.414.71.738Zm-3.17 2.45c0 .835.133 1.466.399 1.892.265.426.658.639 1.177.639.52 0 .915-.215 1.184-.645.274-.43.41-1.058.41-1.886 0-.832-.136-1.461-.41-1.887-.27-.43-.664-.645-1.184-.645-.519 0-.912.213-1.177.639-.266.426-.399 1.057-.399 1.893ZM73.543 51.46h2.76v5.702h2.138V58h-5.355v-.838h2.139V52.3h-1.682v-.838Zm1.682-2.548h1.078v1.36h-1.078v-1.36ZM85.69 52.791c-.231-.18-.465-.31-.704-.393a2.4 2.4 0 0 0-.785-.123c-.672 0-1.185.211-1.54.633-.356.422-.534 1.032-.534 1.828V58h-1.084v-6.563h1.084v1.284c.18-.465.455-.82.826-1.067.375-.25.819-.375 1.33-.375.266 0 .514.033.744.1.23.066.451.17.662.31v1.102ZM93.98 53.758h6.211v.99h-6.21v-.99ZM102.811 57.174v3.322h-1.084v-9.059h1.084v.838a1.86 1.86 0 0 1 .714-.738 2.055 2.055 0 0 1 1.037-.258c.793 0 1.415.307 1.864.92.453.614.679 1.463.679 2.549 0 1.067-.226 1.904-.679 2.514-.453.605-1.074.908-1.864.908-.398 0-.748-.084-1.048-.252a1.817 1.817 0 0 1-.703-.744Zm3.164-2.45c0-.835-.133-1.466-.399-1.892-.262-.426-.652-.639-1.172-.639-.523 0-.92.215-1.189.645-.27.426-.404 1.055-.404 1.887 0 .828.134 1.457.404 1.886.269.43.666.645 1.189.645.52 0 .91-.213 1.172-.639.266-.426.399-1.056.399-1.892ZM119.287 55.627c0 .484.088.85.264 1.096.179.246.443.369.791.369h1.26V58h-1.366c-.644 0-1.144-.205-1.5-.615-.351-.414-.527-1-.527-1.758v-5.936h-1.729v-.843h2.807v6.779ZM125.914 52.193c-.547 0-.961.213-1.242.639-.281.426-.422 1.057-.422 1.893 0 .832.141 1.462.422 1.892.281.426.695.639 1.242.639.551 0 .967-.213 1.248-.639.281-.43.422-1.06.422-1.892 0-.836-.141-1.467-.422-1.893-.281-.426-.697-.639-1.248-.639Zm0-.914c.91 0 1.606.295 2.086.885.484.59.727 1.443.727 2.56 0 1.122-.241 1.977-.721 2.567-.481.586-1.178.879-2.092.879-.91 0-1.605-.293-2.086-.879-.48-.59-.721-1.445-.721-2.566 0-1.118.241-1.971.721-2.56.481-.59 1.176-.886 2.086-.886ZM134.562 54.666c0-.809-.132-1.422-.398-1.84-.262-.422-.644-.633-1.148-.633-.528 0-.93.211-1.207.633-.278.418-.416 1.031-.416 1.84 0 .809.138 1.426.416 1.852.281.422.687.632 1.218.632.496 0 .875-.212 1.137-.638.266-.426.398-1.041.398-1.846Zm1.079 2.912c0 .984-.233 1.73-.698 2.238-.464.508-1.148.762-2.05.762-.297 0-.608-.027-.932-.082a6.81 6.81 0 0 1-.973-.24V59.19c.383.18.731.312 1.043.398.313.086.6.129.862.129.582 0 1.005-.158 1.271-.475.266-.316.398-.818.398-1.506v-.779c-.171.367-.406.64-.703.82-.297.18-.658.27-1.084.27-.765 0-1.377-.307-1.834-.92-.457-.613-.685-1.434-.685-2.461 0-1.031.228-1.853.685-2.467.457-.613 1.069-.92 1.834-.92.422 0 .78.084 1.073.252.293.168.531.428.714.78v-.85h1.079v6.117ZM142.467 51.666v1.055a4.106 4.106 0 0 0-.932-.405 3.44 3.44 0 0 0-.955-.134c-.488 0-.853.08-1.096.24-.238.156-.357.396-.357.72 0 .293.09.512.269.657.18.144.627.285 1.342.422l.434.082c.535.101.939.304 1.213.61.277.304.416.7.416 1.189 0 .648-.231 1.156-.692 1.523-.461.363-1.101.545-1.921.545-.325 0-.665-.035-1.02-.105a8.939 8.939 0 0 1-1.154-.305v-1.113c.402.206.787.363 1.154.468.367.102.715.153 1.043.153.477 0 .846-.096 1.107-.288.262-.195.393-.466.393-.814 0-.5-.479-.846-1.436-1.037l-.046-.012-.405-.082c-.621-.12-1.074-.324-1.359-.61-.285-.288-.428-.68-.428-1.177 0-.629.213-1.113.639-1.453.426-.344 1.033-.516 1.822-.516.352 0 .69.033 1.014.1.324.062.642.158.955.287ZM56.768 68.791c-.23-.18-.465-.31-.703-.393a2.4 2.4 0 0 0-.786-.123c-.672 0-1.185.211-1.54.633-.356.422-.534 1.031-.534 1.828V74h-1.084v-6.563h1.084v1.284c.18-.465.455-.82.826-1.067.375-.25.819-.375 1.33-.375.266 0 .514.034.745.1.23.066.45.17.662.31v1.102ZM63.793 70.18v.527h-4.67v.035c-.031.895.139 1.537.51 1.928.375.39.902.586 1.582.586.344 0 .703-.055 1.078-.164.375-.11.775-.276 1.201-.498v1.072a7.03 7.03 0 0 1-1.19.375 4.971 4.971 0 0 1-1.1.129c-1.02 0-1.817-.305-2.392-.914-.574-.613-.86-1.457-.86-2.531 0-1.047.28-1.883.843-2.508.562-.625 1.312-.938 2.25-.938.836 0 1.494.284 1.974.85.485.566.743 1.25.774 2.05Zm-1.078-.317a2.064 2.064 0 0 0-.498-1.172c-.282-.332-.688-.498-1.219-.498-.52 0-.947.172-1.283.516-.336.344-.52.73-.55 1.16l3.55-.006ZM69.488 68.275v-3.392h1.078V74h-1.078v-.826a1.89 1.89 0 0 1-.72.744c-.297.168-.641.252-1.032.252-.793 0-1.418-.307-1.875-.92-.453-.617-.68-1.467-.68-2.549 0-1.066.23-1.902.686-2.508.457-.609 1.08-.914 1.87-.914.394 0 .742.086 1.042.258.301.168.537.414.71.738Zm-3.17 2.45c0 .836.133 1.466.399 1.892.265.426.658.639 1.177.639.52 0 .915-.215 1.184-.645.274-.43.41-1.058.41-1.886 0-.832-.136-1.461-.41-1.887-.27-.43-.664-.645-1.184-.645-.519 0-.912.213-1.177.639-.266.426-.399 1.057-.399 1.893ZM73.543 67.46h2.76v5.702h2.138V74h-5.355v-.838h2.139V68.3h-1.682v-.838Zm1.682-2.548h1.078v1.36h-1.078v-1.36ZM84.623 67.666v1.055a4.103 4.103 0 0 0-.932-.405 3.442 3.442 0 0 0-.955-.134c-.488 0-.853.08-1.095.24-.239.156-.358.396-.358.72 0 .294.09.512.27.657.18.144.627.285 1.341.422l.434.082c.535.101.94.304 1.213.61.277.304.416.7.416 1.189 0 .648-.23 1.156-.691 1.523-.461.363-1.102.545-1.922.545-.325 0-.664-.035-1.02-.106a8.972 8.972 0 0 1-1.154-.304v-1.114a6.4 6.4 0 0 0 1.154.47c.367.1.715.152 1.043.152.477 0 .846-.096 1.108-.287.261-.196.392-.467.392-.815 0-.5-.478-.846-1.435-1.037l-.047-.012-.404-.082c-.622-.12-1.075-.324-1.36-.61-.285-.288-.428-.68-.428-1.177 0-.629.213-1.113.639-1.453.426-.344 1.033-.516 1.822-.516.352 0 .69.034 1.014.1.324.062.642.158.955.287ZM86.75 69.758h6.21v.99h-6.21v-.99ZM99.084 67.666v1.055a4.106 4.106 0 0 0-.932-.405 3.441 3.441 0 0 0-.955-.134c-.488 0-.853.08-1.095.24-.239.156-.358.396-.358.72 0 .294.09.512.27.657.18.144.627.285 1.342.422l.433.082c.535.101.94.304 1.213.61.277.304.416.7.416 1.189 0 .648-.23 1.156-.691 1.523-.461.363-1.102.545-1.922.545-.325 0-.664-.035-1.02-.106a8.964 8.964 0 0 1-1.154-.304v-1.114c.402.207.787.364 1.154.47.367.1.715.152 1.043.152.477 0 .846-.096 1.108-.287.261-.196.392-.467.392-.815 0-.5-.478-.846-1.435-1.037l-.047-.012-.405-.082c-.62-.12-1.074-.324-1.359-.61-.285-.288-.428-.68-.428-1.177 0-.629.213-1.113.639-1.453.426-.344 1.033-.516 1.822-.516.352 0 .69.034 1.014.1.324.062.642.158.955.287ZM107.176 70.18v.527h-4.67v.035c-.031.895.139 1.537.51 1.928.375.39.902.586 1.582.586a3.85 3.85 0 0 0 1.078-.164c.375-.11.775-.276 1.201-.498v1.072c-.41.168-.807.293-1.189.375a4.979 4.979 0 0 1-1.102.129c-1.02 0-1.816-.305-2.391-.914-.574-.613-.861-1.457-.861-2.531 0-1.047.281-1.883.844-2.508.562-.625 1.312-.938 2.25-.938.836 0 1.494.284 1.974.85.485.566.743 1.25.774 2.05Zm-1.078-.317a2.067 2.067 0 0 0-.498-1.172c-.282-.332-.688-.498-1.219-.498-.52 0-.947.172-1.283.516-.336.344-.52.73-.551 1.16l3.551-.006ZM114.611 68.791c-.23-.18-.465-.31-.703-.393a2.398 2.398 0 0 0-.785-.123c-.672 0-1.185.211-1.541.633-.355.422-.533 1.031-.533 1.828V74h-1.084v-6.563h1.084v1.284c.18-.465.455-.82.826-1.067.375-.25.818-.375 1.33-.375.266 0 .514.034.744.1.231.066.451.17.662.31v1.102ZM115.66 67.438h1.119l1.905 5.507 1.91-5.507h1.119L119.381 74h-1.389l-2.332-6.563ZM128.867 70.18v.527h-4.67v.035c-.031.895.139 1.537.51 1.928.375.39.902.586 1.582.586.344 0 .703-.055 1.078-.164.375-.11.776-.276 1.201-.498v1.072c-.41.168-.806.293-1.189.375a4.972 4.972 0 0 1-1.102.129c-1.019 0-1.816-.305-2.39-.914-.575-.613-.862-1.457-.862-2.531 0-1.047.282-1.883.844-2.508.563-.625 1.313-.938 2.25-.938.836 0 1.494.284 1.975.85.484.566.742 1.25.773 2.05Zm-1.078-.317a2.067 2.067 0 0 0-.498-1.172c-.281-.332-.687-.498-1.219-.498-.519 0-.947.172-1.283.516-.336.344-.519.73-.551 1.16l3.551-.006ZM136.303 68.791a2.452 2.452 0 0 0-.703-.393 2.404 2.404 0 0 0-.786-.123c-.671 0-1.185.211-1.541.633-.355.422-.533 1.031-.533 1.828V74h-1.084v-6.563h1.084v1.284c.18-.465.455-.82.826-1.067.375-.25.819-.375 1.33-.375.266 0 .514.034.745.1.23.066.451.17.662.31v1.102ZM144.594 69.758h6.211v.99h-6.211v-.99ZM151.824 69.758h6.211v.99h-6.211v-.99ZM160.654 73.174v3.322h-1.084v-9.058h1.084v.837c.18-.324.418-.57.715-.738a2.055 2.055 0 0 1 1.037-.258c.793 0 1.414.307 1.864.92.453.614.679 1.463.679 2.549 0 1.066-.226 1.904-.679 2.514-.454.605-1.075.908-1.864.908-.398 0-.748-.084-1.049-.252a1.83 1.83 0 0 1-.703-.744Zm3.164-2.45c0-.835-.132-1.466-.398-1.892-.262-.426-.652-.639-1.172-.639-.523 0-.92.215-1.189.645-.27.426-.405 1.055-.405 1.887 0 .828.135 1.457.405 1.886.269.43.666.645 1.189.645.52 0 .91-.213 1.172-.639.266-.426.398-1.056.398-1.892ZM169.297 68.193c-.547 0-.961.213-1.242.639-.282.426-.422 1.057-.422 1.893 0 .832.14 1.463.422 1.892.281.426.695.639 1.242.639.551 0 .967-.213 1.248-.639.281-.43.422-1.06.422-1.892 0-.836-.141-1.467-.422-1.893-.281-.426-.697-.639-1.248-.639Zm0-.914c.91 0 1.605.295 2.086.885.484.59.726 1.443.726 2.56 0 1.122-.24 1.977-.72 2.567-.481.586-1.178.879-2.092.879-.91 0-1.606-.293-2.086-.879-.481-.59-.721-1.445-.721-2.566 0-1.118.24-1.971.721-2.56.48-.59 1.176-.886 2.086-.886ZM179.686 68.791a2.443 2.443 0 0 0-.704-.393 2.398 2.398 0 0 0-.785-.123c-.672 0-1.185.211-1.541.633-.355.422-.533 1.031-.533 1.828V74h-1.084v-6.563h1.084v1.284c.18-.465.455-.82.826-1.067.375-.25.819-.375 1.33-.375.266 0 .514.034.744.1.231.066.452.17.663.31v1.102ZM183.746 65.574v1.864h2.449v.837h-2.449v3.563c0 .484.092.822.275 1.014.184.191.504.287.961.287h1.213V74h-1.318c-.809 0-1.379-.162-1.711-.486-.332-.325-.498-.883-.498-1.676v-3.563h-1.752v-.838h1.752v-1.863h1.078ZM200.416 65.445v1.09a3.152 3.152 0 0 0-.785-.328 3.185 3.185 0 0 0-.867-.117c-.75 0-1.319.283-1.705.85-.387.562-.58 1.392-.58 2.49.187-.39.447-.69.779-.897.332-.21.713-.316 1.142-.316.844 0 1.496.26 1.957.78.465.515.698 1.247.698 2.196 0 .946-.239 1.678-.715 2.198-.477.52-1.147.779-2.01.779-1.016 0-1.76-.363-2.232-1.09-.473-.73-.709-1.879-.709-3.445 0-1.477.283-2.602.849-3.375.571-.778 1.395-1.166 2.473-1.166.289 0 .578.031.867.094.289.058.568.144.838.257Zm-2.109 3.698c-.504 0-.901.181-1.19.544-.289.364-.433.866-.433 1.506 0 .641.144 1.143.433 1.506.289.364.686.545 1.19.545.523 0 .918-.172 1.183-.516.266-.347.399-.859.399-1.535 0-.68-.133-1.191-.399-1.535-.265-.344-.66-.515-1.183-.515ZM206.387 69.318c.574.153 1.013.424 1.318.815.305.386.457.87.457 1.453 0 .805-.271 1.437-.814 1.898-.539.457-1.287.686-2.244.686-.403 0-.813-.037-1.231-.111a7.894 7.894 0 0 1-1.23-.323V72.56c.398.207.791.36 1.177.463.387.101.772.152 1.155.152.648 0 1.146-.147 1.494-.44.347-.293.521-.715.521-1.265 0-.508-.174-.91-.521-1.207-.348-.301-.819-.451-1.412-.451h-.903v-.973h.903c.543 0 .966-.12 1.271-.357.305-.239.457-.57.457-.997 0-.449-.142-.793-.428-1.03-.281-.243-.683-.364-1.207-.364-.347 0-.707.039-1.078.117-.371.078-.76.195-1.166.352v-1.09c.473-.125.893-.219 1.26-.281.371-.063.699-.094.984-.094.852 0 1.532.215 2.039.644.512.426.768.993.768 1.7 0 .48-.135.88-.404 1.2-.266.321-.655.547-1.166.68ZM212.68 69.846c-.528 0-.936.148-1.225.445-.285.293-.428.709-.428 1.248 0 .54.145.959.434 1.26.293.297.699.445 1.219.445.531 0 .939-.146 1.224-.44.289-.296.434-.718.434-1.265 0-.535-.147-.951-.44-1.248-.289-.297-.695-.445-1.218-.445Zm-1.032-.493c-.503-.128-.898-.369-1.183-.72-.281-.352-.422-.776-.422-1.272 0-.695.236-1.246.709-1.652.473-.41 1.115-.615 1.928-.615.816 0 1.461.205 1.933.615.473.406.709.957.709 1.652 0 .496-.142.92-.427 1.272-.282.351-.674.592-1.178.72.586.13 1.033.39 1.342.78.312.39.468.896.468 1.517 0 .79-.252 1.407-.756 1.852-.503.445-1.201.668-2.091.668-.891 0-1.588-.22-2.092-.662-.5-.445-.75-1.06-.75-1.846 0-.625.154-1.133.463-1.523.312-.395.761-.657 1.347-.785Zm-.427-1.88c0 .468.125.826.375 1.072.25.246.611.37 1.084.37.476 0 .84-.124 1.09-.37.25-.246.375-.604.375-1.072 0-.477-.125-.84-.375-1.09-.247-.25-.61-.375-1.09-.375-.473 0-.834.127-1.084.38-.25.25-.375.612-.375 1.085ZM219.91 65.123c.934 0 1.639.38 2.115 1.143.481.761.721 1.888.721 3.38 0 1.493-.24 2.62-.721 3.381-.476.762-1.181 1.143-2.115 1.143-.933 0-1.639-.38-2.115-1.143-.477-.761-.715-1.888-.715-3.38 0-1.493.238-2.62.715-3.381.476-.762 1.182-1.143 2.115-1.143Zm0 8.11c.555 0 .967-.296 1.236-.885.274-.59.411-1.49.411-2.701 0-.645-.039-1.227-.118-1.747l-2.789 4.366c.293.644.713.966 1.26.966Zm0-7.172c-.551 0-.963.294-1.236.884-.27.59-.404 1.49-.404 2.702 0 .55.037 1.066.111 1.546l2.73-4.353c-.297-.52-.697-.78-1.201-.78Z"/><path fill="#FF417D" d="m233.967 68.686 2.437 3.275c.153-.192.266-.434.34-.727.074-.293.111-.642.111-1.048 0-.126-.005-.325-.017-.598l-.006-.041h.961v.228c0 .63-.072 1.182-.217 1.659-.144.472-.363.88-.656 1.224l.996 1.342h-1.248l-.457-.639a3.416 3.416 0 0 1-1.031.61c-.364.132-.752.199-1.166.199-.844 0-1.541-.262-2.092-.785-.551-.528-.826-1.19-.826-1.987 0-.535.134-1.03.404-1.488.27-.457.676-.88 1.219-1.271a3.432 3.432 0 0 1-.434-.826 2.474 2.474 0 0 1-.14-.82c0-.587.193-1.05.58-1.39.39-.34.923-.51 1.599-.51.254 0 .508.024.762.071.258.047.523.115.797.205v1.072a2.588 2.588 0 0 0-.715-.334 2.606 2.606 0 0 0-.768-.11c-.379 0-.677.089-.896.269a.868.868 0 0 0-.328.715c0 .23.056.472.17.726.113.25.32.576.621.979Zm-.768.609c-.359.285-.629.588-.808.908a2.053 2.053 0 0 0-.264 1.014c0 .59.195 1.08.586 1.47.391.387.889.58 1.494.58.164 0 .336-.023.516-.07.179-.047.355-.115.527-.205a2.582 2.582 0 0 0 .457-.299l-2.508-3.398ZM238.508 68.37v-1.067l6.193 2.449v.973l-6.193 2.449v-1.072l4.98-1.858-4.98-1.875Z"/><path fill="#fff" d="M256.666 71.627c0 .484.088.85.264 1.096.179.246.443.369.791.369h1.259V74h-1.365c-.644 0-1.144-.205-1.5-.615-.351-.414-.527-1-.527-1.758v-5.936h-1.729v-.843h2.807v6.779ZM263.293 68.193c-.547 0-.961.213-1.242.639-.281.426-.422 1.057-.422 1.893 0 .832.141 1.463.422 1.892.281.426.695.639 1.242.639.551 0 .967-.213 1.248-.639.281-.43.422-1.06.422-1.892 0-.836-.141-1.467-.422-1.893-.281-.426-.697-.639-1.248-.639Zm0-.914c.91 0 1.605.295 2.086.885.484.59.726 1.443.726 2.56 0 1.122-.24 1.977-.72 2.567-.481.586-1.178.879-2.092.879-.91 0-1.605-.293-2.086-.879-.48-.59-.721-1.445-.721-2.566 0-1.118.241-1.971.721-2.56.481-.59 1.176-.886 2.086-.886ZM271.941 70.666c0-.809-.132-1.422-.398-1.84-.262-.422-.645-.633-1.148-.633-.528 0-.93.211-1.207.633-.278.418-.417 1.031-.417 1.84 0 .809.139 1.426.417 1.852.281.421.687.632 1.218.632.496 0 .875-.213 1.137-.638.266-.426.398-1.041.398-1.846Zm1.079 2.912c0 .984-.233 1.73-.698 2.238-.465.508-1.148.762-2.051.762-.296 0-.607-.027-.931-.082a6.81 6.81 0 0 1-.973-.24v-1.067c.383.18.731.313 1.043.399.313.086.6.129.861.129.583 0 1.006-.158 1.272-.475.266-.316.398-.818.398-1.506v-.779c-.171.367-.406.64-.703.82-.297.18-.658.27-1.084.27-.765 0-1.377-.307-1.834-.92-.457-.613-.685-1.434-.685-2.461 0-1.031.228-1.853.685-2.467.457-.613 1.069-.92 1.834-.92.422 0 .78.084 1.073.252.293.168.531.428.714.78v-.85h1.079v6.117ZM279.846 67.666v1.055a4.106 4.106 0 0 0-.932-.405 3.44 3.44 0 0 0-.955-.134c-.488 0-.854.08-1.096.24-.238.156-.357.396-.357.72 0 .294.09.512.269.657.18.144.627.285 1.342.422l.434.082c.535.101.939.304 1.213.61.277.304.416.7.416 1.189 0 .648-.231 1.156-.692 1.523-.461.363-1.101.545-1.922.545a5.25 5.25 0 0 1-1.019-.106 8.939 8.939 0 0 1-1.154-.304v-1.114c.402.207.787.364 1.154.47.367.1.715.152 1.043.152.476 0 .846-.096 1.107-.287.262-.196.393-.467.393-.815 0-.5-.479-.846-1.436-1.037l-.047-.012-.404-.082c-.621-.12-1.074-.324-1.359-.61-.285-.288-.428-.68-.428-1.177 0-.629.213-1.113.639-1.453.425-.344 1.033-.516 1.822-.516.352 0 .689.034 1.014.1.324.062.642.158.955.287ZM286.584 65.252h1.113l-4.605 9.861h-1.119l4.611-9.861ZM295.373 68.791c-.23-.18-.465-.31-.703-.393a2.398 2.398 0 0 0-.785-.123c-.672 0-1.186.211-1.541.633-.356.422-.533 1.031-.533 1.828V74h-1.084v-6.563h1.084v1.284c.179-.465.455-.82.826-1.067.375-.25.818-.375 1.33-.375.265 0 .513.034.744.1.23.066.451.17.662.31v1.102ZM302.398 70.18v.527h-4.669v.035c-.032.895.138 1.537.509 1.928.375.39.903.586 1.582.586.344 0 .703-.055 1.078-.164.375-.11.776-.276 1.202-.498v1.072a7.056 7.056 0 0 1-1.19.375 4.97 4.97 0 0 1-1.101.129c-1.02 0-1.817-.305-2.391-.914-.574-.613-.861-1.457-.861-2.531 0-1.047.281-1.883.843-2.508.563-.625 1.313-.938 2.25-.938.836 0 1.495.284 1.975.85.484.566.742 1.25.773 2.05Zm-1.078-.317a2.067 2.067 0 0 0-.498-1.172c-.281-.332-.687-.498-1.218-.498-.52 0-.948.172-1.284.516-.336.344-.519.73-.55 1.16l3.55-.006ZM308.094 68.275v-3.392h1.078V74h-1.078v-.826c-.18.324-.42.572-.721.744a2.06 2.06 0 0 1-1.031.252c-.793 0-1.418-.307-1.875-.92-.453-.617-.68-1.467-.68-2.549 0-1.066.229-1.902.686-2.508.457-.609 1.08-.914 1.869-.914.394 0 .742.086 1.043.258.301.168.537.414.709.738Zm-3.17 2.45c0 .836.133 1.466.398 1.892.266.426.658.639 1.178.639.52 0 .914-.215 1.184-.645.273-.43.41-1.058.41-1.886 0-.832-.137-1.461-.41-1.887-.27-.43-.664-.645-1.184-.645-.52 0-.912.213-1.178.639-.265.426-.398 1.057-.398 1.893ZM312.148 67.46h2.76v5.702h2.139V74h-5.356v-.838h2.139V68.3h-1.682v-.838Zm1.682-2.548h1.078v1.36h-1.078v-1.36ZM323.229 67.666v1.055a4.125 4.125 0 0 0-.932-.405 3.445 3.445 0 0 0-.955-.134c-.488 0-.854.08-1.096.24-.238.156-.357.396-.357.72 0 .294.09.512.269.657.18.144.627.285 1.342.422l.434.082c.535.101.939.304 1.212.61.278.304.416.7.416 1.189 0 .648-.23 1.156-.691 1.523-.461.363-1.101.545-1.922.545a5.25 5.25 0 0 1-1.019-.106 8.95 8.95 0 0 1-1.155-.304v-1.114c.403.207.787.364 1.155.47.367.1.715.152 1.043.152.476 0 .845-.096 1.107-.287.262-.196.393-.467.393-.815 0-.5-.479-.846-1.436-1.037l-.047-.012-.404-.082c-.621-.12-1.074-.324-1.359-.61-.286-.288-.428-.68-.428-1.177 0-.629.213-1.113.639-1.453.425-.344 1.033-.516 1.822-.516.351 0 .689.034 1.013.1.325.062.643.158.956.287ZM331.93 75.113v.996h-7.172v-.996h7.172ZM337.689 67.666v1.055a4.099 4.099 0 0 0-.931-.405 3.445 3.445 0 0 0-.955-.134c-.489 0-.854.08-1.096.24-.238.156-.357.396-.357.72 0 .294.089.512.269.657.18.144.627.285 1.342.422l.434.082c.535.101.939.304 1.212.61.278.304.416.7.416 1.189 0 .648-.23 1.156-.691 1.523-.461.363-1.102.545-1.922.545a5.25 5.25 0 0 1-1.019-.106 8.95 8.95 0 0 1-1.155-.304v-1.114c.403.207.787.364 1.155.47a3.91 3.91 0 0 0 1.043.152c.476 0 .845-.096 1.107-.287.262-.196.393-.467.393-.815 0-.5-.479-.846-1.436-1.037l-.047-.012-.404-.082c-.621-.12-1.074-.324-1.359-.61-.286-.288-.428-.68-.428-1.177 0-.629.213-1.113.638-1.453.426-.344 1.034-.516 1.823-.516.351 0 .689.034 1.013.1.325.062.643.158.955.287ZM345.781 70.18v.527h-4.67v.035c-.031.895.139 1.537.51 1.928.375.39.902.586 1.582.586.344 0 .703-.055 1.078-.164.375-.11.776-.276 1.201-.498v1.072c-.41.168-.806.293-1.189.375a4.972 4.972 0 0 1-1.102.129c-1.019 0-1.816-.305-2.39-.914-.574-.613-.862-1.457-.862-2.531 0-1.047.282-1.883.844-2.508.563-.625 1.313-.938 2.25-.938.836 0 1.494.284 1.975.85.484.566.742 1.25.773 2.05Zm-1.078-.317a2.067 2.067 0 0 0-.498-1.172c-.281-.332-.687-.498-1.219-.498-.519 0-.947.172-1.283.516-.336.344-.519.73-.551 1.16l3.551-.006ZM348.729 71.633h2.062V74h-2.062v-2.367ZM357.893 71.627c0 .484.087.85.263 1.096.18.246.444.369.791.369h1.26V74h-1.365c-.645 0-1.145-.205-1.5-.615-.352-.414-.528-1-.528-1.758v-5.936h-1.728v-.843h2.807v6.779ZM364.52 68.193c-.547 0-.961.213-1.243.639-.281.426-.422 1.057-.422 1.893 0 .832.141 1.463.422 1.892.282.426.696.639 1.243.639.55 0 .966-.213 1.248-.639.281-.43.421-1.06.421-1.892 0-.836-.14-1.467-.421-1.893-.282-.426-.698-.639-1.248-.639Zm0-.914c.91 0 1.605.295 2.085.885.485.59.727 1.443.727 2.56 0 1.122-.24 1.977-.721 2.567-.48.586-1.177.879-2.091.879-.911 0-1.606-.293-2.086-.879-.481-.59-.721-1.445-.721-2.566 0-1.118.24-1.971.721-2.56.48-.59 1.175-.886 2.086-.886ZM373.168 70.666c0-.809-.133-1.422-.398-1.84-.262-.422-.645-.633-1.149-.633-.527 0-.93.211-1.207.633-.277.418-.416 1.031-.416 1.84 0 .809.139 1.426.416 1.852.281.421.688.632 1.219.632.496 0 .875-.213 1.137-.638.265-.426.398-1.041.398-1.846Zm1.078 2.912c0 .984-.232 1.73-.697 2.238-.465.508-1.149.762-2.051.762-.297 0-.607-.027-.932-.082a6.798 6.798 0 0 1-.972-.24v-1.067c.383.18.73.313 1.043.399.312.086.599.129.861.129.582 0 1.006-.158 1.272-.475.265-.316.398-.818.398-1.506v-.779c-.172.367-.406.64-.703.82-.297.18-.658.27-1.084.27-.766 0-1.377-.307-1.834-.92-.457-.613-.686-1.434-.686-2.461 0-1.031.229-1.853.686-2.467.457-.613 1.068-.92 1.834-.92.422 0 .779.084 1.072.252.293.168.531.428.715.78v-.85h1.078v6.117Z"/><path fill="#FF417D" d="m385.807 68.686 2.437 3.275c.152-.192.266-.434.34-.727.074-.293.111-.642.111-1.048 0-.126-.006-.325-.017-.598l-.006-.041h.961v.228c0 .63-.072 1.182-.217 1.659-.145.472-.363.88-.656 1.224l.996 1.342h-1.248l-.457-.639a3.416 3.416 0 0 1-1.031.61c-.364.132-.752.199-1.166.199-.844 0-1.542-.262-2.092-.785-.551-.528-.826-1.19-.826-1.987 0-.535.134-1.03.404-1.488.269-.457.676-.88 1.219-1.271a3.432 3.432 0 0 1-.434-.826 2.475 2.475 0 0 1-.141-.82c0-.587.194-1.05.58-1.39.391-.34.924-.51 1.6-.51.254 0 .508.024.762.071.258.047.523.115.797.205v1.072a2.588 2.588 0 0 0-.715-.334 2.606 2.606 0 0 0-.768-.11c-.379 0-.678.089-.896.269a.868.868 0 0 0-.328.715c0 .23.056.472.17.726.113.25.32.576.621.979Zm-.768.609c-.359.285-.629.588-.809.908a2.063 2.063 0 0 0-.263 1.014c0 .59.195 1.08.586 1.47.39.387.888.58 1.494.58.164 0 .336-.023.515-.07.18-.047.356-.115.528-.205a2.792 2.792 0 0 0 .457-.299l-2.508-3.398Z"/><path fill="#fff" d="M52.555 105.027c.996 0 1.691-.244 2.086-.732.394-.492.591-1.379.591-2.66 0-1.293-.197-2.184-.591-2.672-.391-.492-1.086-.738-2.086-.738h-.563v6.802h.563Zm.023-7.775c1.336 0 2.32.355 2.953 1.066.633.711.95 1.817.95 3.317 0 1.492-.317 2.594-.95 3.304-.633.707-1.617 1.061-2.953 1.061h-1.775v-8.748h1.775ZM58.385 97.252h5.191v.996h-4.008v2.356H63.4v.996h-3.832v3.404h4.12V106h-5.303v-8.748ZM66.623 101.588v3.439h1.4c.688 0 1.178-.119 1.471-.357.293-.242.44-.639.44-1.19 0-.726-.155-1.222-.463-1.488-.309-.269-.791-.404-1.448-.404h-1.4Zm0-3.363v2.402H68c.57 0 .982-.109 1.236-.328.258-.219.387-.494.387-.826 0-.442-.127-.76-.38-.955-.25-.196-.665-.293-1.243-.293h-1.377Zm-1.19-.973h2.59c.895 0 1.584.193 2.069.58.484.387.726.934.726 1.64 0 .38-.129.723-.386 1.032-.254.308-.637.502-1.149.58.574.086 1.024.332 1.348.738.328.403.492.994.492 1.776 0 .793-.26 1.392-.78 1.798-.519.403-1.292.604-2.32.604h-2.59v-8.748ZM72.553 102.643v-5.391h1.19v5.93c0 .425.01.73.034.914.024.179.065.318.123.416.125.23.305.404.54.521.238.117.525.176.86.176.34 0 .628-.059.862-.176.234-.117.416-.291.545-.521.059-.098.1-.237.123-.416.023-.18.035-.481.035-.903v-5.941h1.184v5.391c0 .894-.057 1.531-.17 1.91-.11.375-.3.685-.574.931a2.535 2.535 0 0 1-.885.516 3.46 3.46 0 0 1-1.12.17 3.44 3.44 0 0 1-1.112-.17 2.597 2.597 0 0 1-.891-.516 1.982 1.982 0 0 1-.574-.937c-.114-.387-.17-1.022-.17-1.904ZM85.39 105.279a3.293 3.293 0 0 1-1.072.668 3.603 3.603 0 0 1-1.283.223c-1.11 0-1.972-.397-2.59-1.19-.617-.796-.925-1.912-.925-3.345 0-1.43.312-2.543.937-3.34.625-.8 1.494-1.201 2.608-1.201a3.592 3.592 0 0 1 2.027.627v1.213c-.317-.301-.64-.522-.973-.662a2.614 2.614 0 0 0-1.055-.217c-.77 0-1.347.298-1.734.896-.383.594-.574 1.488-.574 2.684 0 1.215.185 2.115.556 2.701.376.582.95.873 1.723.873.262 0 .49-.029.686-.088.199-.062.379-.158.539-.287v-2.35h-1.272v-.972h2.403v3.767ZM86.668 103.07h6.193v.991h-6.193v-.991Zm0-2.759h6.193v.99h-6.193v-.99Z"/><path fill="#87D0BF" d="M98.92 96.936v3.585h-1.313v-3.585h1.313Zm-3.123 0v3.585h-1.313v-3.585h1.313ZM106.314 99.666v1.055a4.098 4.098 0 0 0-.931-.405 3.474 3.474 0 0 0-.955-.134c-.489 0-.854.08-1.096.24-.238.156-.357.396-.357.721 0 .293.089.511.269.656.18.144.627.285 1.342.422l.434.082c.535.101.939.304 1.212.609.278.305.416.701.416 1.19 0 .648-.23 1.156-.691 1.523-.461.363-1.102.545-1.922.545-.324 0-.664-.035-1.019-.106a8.974 8.974 0 0 1-1.155-.304v-1.114a6.3 6.3 0 0 0 1.155.469c.367.102.714.153 1.043.153.476 0 .845-.096 1.107-.288.262-.195.393-.466.393-.814 0-.5-.479-.846-1.436-1.037l-.047-.012-.404-.082c-.621-.121-1.074-.324-1.36-.609-.285-.289-.427-.682-.427-1.178 0-.629.213-1.113.638-1.453.426-.344 1.034-.516 1.823-.516.351 0 .689.034 1.013.1.325.062.643.158.955.287ZM114.406 102.18v.527h-4.67v.035c-.031.895.139 1.537.51 1.928.375.391.902.586 1.582.586a3.86 3.86 0 0 0 1.078-.164c.375-.11.776-.276 1.201-.498v1.072c-.41.168-.806.293-1.189.375a4.972 4.972 0 0 1-1.102.129c-1.019 0-1.816-.305-2.39-.914-.574-.613-.862-1.457-.862-2.531 0-1.047.282-1.883.844-2.508.563-.625 1.313-.938 2.25-.938.836 0 1.494.284 1.975.85.484.566.742 1.25.773 2.051Zm-1.078-.317a2.07 2.07 0 0 0-.498-1.172c-.281-.332-.687-.498-1.219-.498-.519 0-.947.172-1.283.516-.336.344-.519.73-.551 1.16l3.551-.006ZM118.672 97.574v1.864h2.449v.837h-2.449v3.563c0 .484.092.822.275 1.014.184.191.504.287.961.287h1.213V106h-1.318c-.809 0-1.379-.162-1.711-.486-.332-.325-.498-.883-.498-1.676v-3.563h-1.752v-.838h1.752v-1.863h1.078ZM125.902 97.574v1.864h2.45v.837h-2.45v3.563c0 .484.092.822.276 1.014.183.191.504.287.961.287h1.213V106h-1.319c-.808 0-1.379-.162-1.711-.486-.332-.325-.498-.883-.498-1.676v-3.563h-1.752v-.838h1.752v-1.863h1.078ZM133.748 103.627c0 .484.088.85.264 1.096.179.246.443.369.791.369h1.259V106h-1.365c-.644 0-1.144-.205-1.5-.615-.351-.414-.527-1-.527-1.758v-5.936h-1.729v-.843h2.807v6.779ZM143.328 102.18v.527h-4.67v.035c-.031.895.139 1.537.51 1.928.375.391.902.586 1.582.586a3.86 3.86 0 0 0 1.078-.164c.375-.11.776-.276 1.201-.498v1.072c-.41.168-.806.293-1.189.375a4.972 4.972 0 0 1-1.102.129c-1.019 0-1.816-.305-2.39-.914-.575-.613-.862-1.457-.862-2.531 0-1.047.282-1.883.844-2.508.563-.625 1.313-.938 2.25-.938.836 0 1.494.284 1.975.85.484.566.742 1.25.773 2.051Zm-1.078-.317a2.07 2.07 0 0 0-.498-1.172c-.281-.332-.688-.498-1.219-.498-.519 0-.947.172-1.283.516-.336.344-.52.73-.551 1.16l3.551-.006ZM147.957 100.105c.133-.28.301-.488.504-.62a1.32 1.32 0 0 1 .744-.206c.527 0 .899.205 1.113.615.219.407.328 1.174.328 2.303V106h-.984v-3.756c0-.926-.053-1.5-.158-1.723-.102-.226-.289-.339-.563-.339-.312 0-.527.121-.644.363-.113.238-.17.805-.17 1.699V106h-.984v-3.756c0-.937-.057-1.515-.17-1.734-.11-.219-.309-.328-.598-.328-.285 0-.484.121-.598.363-.109.238-.164.805-.164 1.699V106h-.978v-6.563h.978V100c.129-.234.289-.412.481-.533.195-.125.416-.188.662-.188.297 0 .543.069.738.205.199.137.354.344.463.621ZM157.789 102.18v.527h-4.67v.035c-.031.895.139 1.537.51 1.928.375.391.902.586 1.582.586a3.86 3.86 0 0 0 1.078-.164c.375-.11.775-.276 1.201-.498v1.072c-.41.168-.806.293-1.189.375a4.972 4.972 0 0 1-1.102.129c-1.019 0-1.816-.305-2.39-.914-.575-.613-.862-1.457-.862-2.531 0-1.047.282-1.883.844-2.508.563-.625 1.313-.938 2.25-.938.836 0 1.494.284 1.975.85.484.566.742 1.25.773 2.051Zm-1.078-.317a2.07 2.07 0 0 0-.498-1.172c-.281-.332-.688-.498-1.219-.498-.519 0-.947.172-1.283.516-.336.344-.52.73-.551 1.16l3.551-.006ZM164.615 101.934V106h-1.084v-4.066c0-.59-.103-1.024-.31-1.301-.207-.278-.532-.416-.973-.416-.504 0-.893.179-1.166.539-.27.355-.404.867-.404 1.535V106H159.6v-6.563h1.078v.985c.191-.375.451-.658.779-.85.328-.195.717-.293 1.166-.293.668 0 1.166.221 1.494.662.332.438.498 1.102.498 1.993ZM169.285 97.574v1.864h2.449v.837h-2.449v3.563c0 .484.092.822.276 1.014.183.191.503.287.96.287h1.213V106h-1.318c-.809 0-1.379-.162-1.711-.486-.332-.325-.498-.883-.498-1.676v-3.563h-1.752v-.838h1.752v-1.863h1.078ZM179.826 100.896l-2.601 1.407 2.601 1.412-.41.715-2.449-1.471v2.73h-.838v-2.73l-2.449 1.471-.41-.715 2.607-1.412-2.607-1.407.41-.72 2.449 1.47v-2.73h.838v2.73l2.449-1.47.41.72ZM189.23 99.46h2.76v5.702h2.139V106h-5.356v-.838h2.139v-4.863h-1.682v-.838Zm1.682-2.548h1.078v1.36h-1.078v-1.36ZM198.822 103.627c0 .484.088.85.264 1.096.18.246.443.369.791.369h1.26V106h-1.366c-.644 0-1.144-.205-1.5-.615-.351-.414-.527-1-.527-1.758v-5.936h-1.728v-.843h2.806v6.779ZM204.037 105.174v3.322h-1.084v-9.058h1.084v.837c.18-.324.418-.57.715-.738a2.052 2.052 0 0 1 1.037-.258c.793 0 1.414.307 1.863.92.453.613.68 1.463.68 2.549 0 1.066-.227 1.904-.68 2.514-.453.605-1.074.908-1.863.908-.398 0-.748-.084-1.049-.252a1.825 1.825 0 0 1-.703-.744Zm3.164-2.449c0-.836-.133-1.467-.398-1.893-.262-.426-.653-.639-1.172-.639-.524 0-.92.215-1.19.645-.269.426-.404 1.055-.404 1.887 0 .828.135 1.457.404 1.886.27.43.666.645 1.19.645.519 0 .91-.213 1.172-.639.265-.426.398-1.056.398-1.892ZM209.668 101.758h6.211v.99h-6.211v-.99ZM222.002 99.666v1.055a4.105 4.105 0 0 0-.932-.405 3.469 3.469 0 0 0-.955-.134c-.488 0-.853.08-1.095.24-.239.156-.358.396-.358.721 0 .293.09.511.27.656.179.144.627.285 1.341.422l.434.082c.535.101.939.304 1.213.609.277.305.416.701.416 1.19 0 .648-.231 1.156-.691 1.523-.461.363-1.102.545-1.922.545-.325 0-.664-.035-1.02-.106a9.004 9.004 0 0 1-1.154-.304v-1.114c.402.208.787.364 1.154.469a3.9 3.9 0 0 0 1.043.153c.477 0 .846-.096 1.108-.288.261-.195.392-.466.392-.814 0-.5-.478-.846-1.435-1.037l-.047-.012-.405-.082c-.621-.121-1.074-.324-1.359-.609-.285-.289-.428-.682-.428-1.178 0-.629.213-1.113.639-1.453.426-.344 1.033-.516 1.822-.516.352 0 .69.034 1.014.1.324.062.642.158.955.287ZM230.094 102.18v.527h-4.67v.035c-.031.895.138 1.537.51 1.928.375.391.902.586 1.582.586.343 0 .703-.055 1.078-.164.375-.11.775-.276 1.201-.498v1.072c-.41.168-.807.293-1.19.375a4.964 4.964 0 0 1-1.101.129c-1.02 0-1.816-.305-2.391-.914-.574-.613-.861-1.457-.861-2.531 0-1.047.281-1.883.844-2.508.562-.625 1.312-.938 2.25-.938.836 0 1.494.284 1.974.85.485.566.742 1.25.774 2.051Zm-1.078-.317a2.07 2.07 0 0 0-.498-1.172c-.282-.332-.688-.498-1.219-.498-.52 0-.947.172-1.283.516-.336.344-.52.73-.551 1.16l3.551-.006ZM234.359 97.574v1.864h2.45v.837h-2.45v3.563c0 .484.092.822.276 1.014.183.191.504.287.961.287h1.213V106h-1.319c-.808 0-1.379-.162-1.711-.486-.332-.325-.498-.883-.498-1.676v-3.563h-1.752v-.838h1.752v-1.863h1.078ZM241.59 97.574v1.864h2.449v.837h-2.449v3.563c0 .484.092.822.275 1.014.184.191.504.287.961.287h1.213V106h-1.318c-.809 0-1.379-.162-1.711-.486-.332-.325-.498-.883-.498-1.676v-3.563h-1.752v-.838h1.752v-1.863h1.078ZM249.436 103.627c0 .484.087.85.263 1.096.18.246.444.369.791.369h1.26V106h-1.365c-.645 0-1.145-.205-1.5-.615-.352-.414-.528-1-.528-1.758v-5.936h-1.728v-.843h2.807v6.779ZM259.016 102.18v.527h-4.67v.035c-.032.895.138 1.537.509 1.928.375.391.903.586 1.583.586.343 0 .703-.055 1.078-.164.375-.11.775-.276 1.201-.498v1.072c-.41.168-.807.293-1.19.375a4.97 4.97 0 0 1-1.101.129c-1.02 0-1.817-.305-2.391-.914-.574-.613-.861-1.457-.861-2.531 0-1.047.281-1.883.844-2.508.562-.625 1.312-.938 2.25-.938.836 0 1.494.284 1.974.85.485.566.742 1.25.774 2.051Zm-1.078-.317a2.065 2.065 0 0 0-.499-1.172c-.281-.332-.687-.498-1.218-.498-.52 0-.948.172-1.283.516-.336.344-.52.73-.551 1.16l3.551-.006ZM263.645 100.105c.132-.28.3-.488.503-.62.207-.137.456-.206.745-.206.527 0 .898.205 1.113.615.219.407.328 1.174.328 2.303V106h-.984v-3.756c0-.926-.053-1.5-.159-1.723-.101-.226-.289-.339-.562-.339-.313 0-.527.121-.645.363-.113.238-.17.805-.17 1.699V106h-.984v-3.756c0-.937-.057-1.515-.17-1.734-.109-.219-.308-.328-.598-.328-.285 0-.484.121-.597.363-.11.238-.164.805-.164 1.699V106h-.979v-6.563h.979V100c.129-.234.289-.412.48-.533.196-.125.416-.188.662-.188.297 0 .543.069.739.205.199.137.353.344.463.621ZM273.477 102.18v.527h-4.67v.035c-.032.895.138 1.537.509 1.928.375.391.903.586 1.582.586.344 0 .704-.055 1.079-.164.375-.11.775-.276 1.201-.498v1.072c-.41.168-.807.293-1.19.375a4.97 4.97 0 0 1-1.101.129c-1.02 0-1.817-.305-2.391-.914-.574-.613-.861-1.457-.861-2.531 0-1.047.281-1.883.844-2.508.562-.625 1.312-.938 2.25-.938.835 0 1.494.284 1.974.85.485.566.742 1.25.774 2.051Zm-1.079-.317a2.057 2.057 0 0 0-.498-1.172c-.281-.332-.687-.498-1.218-.498-.52 0-.948.172-1.284.516-.336.344-.519.73-.55 1.16l3.55-.006ZM280.303 101.934V106h-1.084v-4.066c0-.59-.104-1.024-.311-1.301-.207-.278-.531-.416-.972-.416-.504 0-.893.179-1.166.539-.27.355-.405.867-.405 1.535V106h-1.078v-6.563h1.078v.985c.192-.375.451-.658.78-.85.328-.195.716-.293 1.166-.293.668 0 1.166.221 1.494.662.332.438.498 1.102.498 1.993ZM284.973 97.574v1.864h2.449v.837h-2.449v3.563c0 .484.091.822.275 1.014.184.191.504.287.961.287h1.213V106h-1.318c-.809 0-1.379-.162-1.711-.486-.332-.325-.498-.883-.498-1.676v-3.563h-1.752v-.838h1.752v-1.863h1.078ZM289.203 101.758h6.211v.99h-6.211v-.99ZM302.387 99.438l-2.35 3.14 2.578 3.422h-1.248l-1.922-2.631-1.916 2.631h-1.248l2.578-3.422-2.349-3.14h1.195l1.74 2.373 1.729-2.374h1.213ZM309.834 100.791a2.43 2.43 0 0 0-.703-.393 2.398 2.398 0 0 0-.785-.123c-.672 0-1.186.211-1.541.633-.356.422-.534 1.031-.534 1.828V106h-1.083v-6.563h1.083v1.284c.18-.465.456-.82.827-1.067.375-.25.818-.375 1.33-.375.265 0 .513.034.744.1.23.066.451.17.662.31v1.102ZM312.494 105.174v3.322h-1.084v-9.058h1.084v.837c.18-.324.418-.57.715-.738a2.052 2.052 0 0 1 1.037-.258c.793 0 1.414.307 1.863.92.453.613.68 1.463.68 2.549 0 1.066-.227 1.904-.68 2.514-.453.605-1.074.908-1.863.908-.398 0-.748-.084-1.049-.252a1.825 1.825 0 0 1-.703-.744Zm3.164-2.449c0-.836-.133-1.467-.398-1.893-.262-.426-.653-.639-1.172-.639-.524 0-.92.215-1.19.645-.269.426-.404 1.055-.404 1.887 0 .828.135 1.457.404 1.886.27.43.666.645 1.19.645.519 0 .91-.213 1.172-.639.265-.426.398-1.056.398-1.892ZM323.064 96.936v3.585h-1.312v-3.585h1.312Zm-3.123 0v3.585h-1.312v-3.585h1.312Z"/><path fill="#fff" d="m333.705 97.252 4.606 9.861h-1.114l-4.611-9.861h1.119ZM56.287 121.689c-.3.161-.61.28-.926.358a4.003 4.003 0 0 1-1.008.123c-1.12 0-1.992-.397-2.613-1.19-.617-.792-.925-1.908-.925-3.345 0-1.43.31-2.543.931-3.34.625-.801 1.494-1.201 2.607-1.201.356 0 .692.041 1.008.123.317.078.625.197.926.357v1.213a3.28 3.28 0 0 0-.931-.545 2.825 2.825 0 0 0-1.003-.187c-.769 0-1.345.297-1.728.89-.383.594-.574 1.491-.574 2.69 0 1.195.191 2.09.574 2.683.383.594.959.891 1.728.891.344 0 .68-.063 1.008-.188.332-.125.641-.306.926-.544v1.212ZM62.533 117.635c0-1.285-.133-2.203-.398-2.754-.262-.551-.694-.826-1.295-.826-.598 0-1.03.275-1.295.826-.262.551-.393 1.469-.393 2.754 0 1.281.131 2.197.393 2.748.265.551.697.826 1.295.826.601 0 1.033-.273 1.295-.82.265-.551.398-1.469.398-2.754Zm1.236 0c0 1.523-.242 2.66-.726 3.41-.48.75-1.215 1.125-2.203 1.125-.988 0-1.723-.373-2.203-1.119-.48-.746-.721-1.885-.721-3.416 0-1.528.24-2.666.72-3.416.485-.75 1.22-1.125 2.204-1.125.988 0 1.722.375 2.203 1.125.484.75.727 1.888.727 3.416ZM64.572 113.281h1.617l3.422 7.178v-7.178h1.26V122h-1.617l-3.422-7.178V122h-1.26v-8.719ZM71.803 113.281h1.617l3.422 7.178v-7.178h1.26V122h-1.618l-3.421-7.178V122h-1.26v-8.719ZM80.076 113.252h5.192v.996H81.26v2.356h3.832v.996H81.26v3.404h4.119V122h-5.303v-8.748ZM92.44 121.689c-.301.161-.61.28-.926.358a4.004 4.004 0 0 1-1.008.123c-1.121 0-1.992-.397-2.613-1.19-.618-.792-.926-1.908-.926-3.345 0-1.43.31-2.543.931-3.34.625-.801 1.495-1.201 2.608-1.201.355 0 .691.041 1.008.123.316.078.625.197.925.357v1.213a3.28 3.28 0 0 0-.931-.545 2.824 2.824 0 0 0-1.002-.187c-.77 0-1.346.297-1.729.89-.383.594-.574 1.491-.574 2.69 0 1.195.191 2.09.574 2.683.383.594.96.891 1.729.891.344 0 .68-.063 1.008-.188.332-.125.64-.306.925-.544v1.212ZM93.658 113.252h6.674v.996h-2.736V122h-1.19v-7.752h-2.748v-.996ZM105.916 117.635c0-1.285-.133-2.203-.398-2.754-.262-.551-.694-.826-1.295-.826-.598 0-1.03.275-1.295.826-.262.551-.393 1.469-.393 2.754 0 1.281.131 2.197.393 2.748.265.551.697.826 1.295.826.601 0 1.033-.273 1.295-.82.265-.551.398-1.469.398-2.754Zm1.236 0c0 1.523-.242 2.66-.726 3.41-.481.75-1.215 1.125-2.203 1.125-.989 0-1.723-.373-2.203-1.119-.481-.746-.721-1.885-.721-3.416 0-1.528.24-2.666.721-3.416.484-.75 1.218-1.125 2.203-1.125.988 0 1.722.375 2.203 1.125.484.75.726 1.888.726 3.416ZM112.297 117.869c.305.078.564.227.779.445.215.215.483.647.803 1.295l1.189 2.391h-1.271l-1.043-2.209c-.301-.629-.572-1.033-.815-1.213-.238-.183-.55-.275-.937-.275h-1.131V122h-1.189v-8.748h2.437c.961 0 1.697.217 2.209.65.512.434.768 1.061.768 1.881 0 .578-.158 1.051-.475 1.418-.312.363-.754.586-1.324.668Zm-2.426-3.644v3.105h1.295c.566 0 .988-.127 1.266-.381.277-.254.416-.642.416-1.166 0-.504-.149-.888-.446-1.154-.293-.27-.72-.404-1.283-.404h-1.248ZM122.246 123.113v.996h-7.172v-.996h7.172ZM123.166 118.643v-5.391h1.189v5.93c0 .425.012.73.036.914.023.179.064.318.123.416.125.23.304.404.539.521.238.117.525.176.861.176.34 0 .627-.059.861-.176.235-.117.416-.291.545-.521.059-.098.1-.237.123-.416a7.78 7.78 0 0 0 .036-.903v-5.941h1.183v5.391c0 .894-.057 1.531-.17 1.91a1.962 1.962 0 0 1-.574.931 2.539 2.539 0 0 1-.885.516 3.46 3.46 0 0 1-1.119.17 3.44 3.44 0 0 1-1.113-.17 2.602 2.602 0 0 1-.891-.516 1.985 1.985 0 0 1-.574-.937c-.113-.387-.17-1.022-.17-1.904ZM133.988 117.869c.305.078.565.227.78.445.214.215.482.647.802 1.295l1.19 2.391h-1.272l-1.043-2.209c-.3-.629-.572-1.033-.814-1.213-.238-.183-.551-.275-.938-.275h-1.131V122h-1.189v-8.748h2.438c.96 0 1.697.217 2.209.65.511.434.767 1.061.767 1.881 0 .578-.158 1.051-.475 1.418-.312.363-.753.586-1.324.668Zm-2.426-3.644v3.105h1.295c.567 0 .989-.127 1.266-.381s.416-.642.416-1.166c0-.504-.148-.888-.445-1.154-.293-.27-.721-.404-1.283-.404h-1.249ZM138.025 113.252h1.19v7.752h4.224V122h-5.414v-8.748ZM144.512 119.07h6.193v.991h-6.193v-.991Zm0-2.759h6.193v.99h-6.193v-.99Z"/><path fill="#87D0BF" d="M156.764 112.936v3.585h-1.313v-3.585h1.313Zm-3.123 0v3.585h-1.313v-3.585h1.313ZM164.615 117.934V122h-1.084v-4.066c0-.59-.103-1.024-.31-1.301-.207-.278-.532-.416-.973-.416-.504 0-.893.179-1.166.539-.27.355-.404.867-.404 1.535V122H159.6v-9.117h1.078v3.539c.191-.375.451-.658.779-.85.328-.195.717-.293 1.166-.293.668 0 1.166.221 1.494.662.332.438.498 1.102.498 1.993ZM169.285 113.574v1.864h2.449v.837h-2.449v3.563c0 .484.092.822.276 1.014.183.191.503.287.96.287h1.213V122h-1.318c-.809 0-1.379-.162-1.711-.486-.332-.325-.498-.883-.498-1.676v-3.563h-1.752v-.837h1.752v-1.864h1.078ZM176.516 113.574v1.864h2.449v.837h-2.449v3.563c0 .484.091.822.275 1.014.184.191.504.287.961.287h1.213V122h-1.319c-.808 0-1.378-.162-1.71-.486-.332-.325-.498-.883-.498-1.676v-3.563h-1.752v-.837h1.752v-1.864h1.078ZM182.346 121.174v3.322h-1.084v-9.058h1.084v.837c.179-.324.418-.57.715-.738.3-.172.646-.258 1.037-.258.793 0 1.414.307 1.863.92.453.613.68 1.463.68 2.549 0 1.066-.227 1.904-.68 2.514-.453.605-1.074.908-1.863.908-.399 0-.748-.084-1.049-.252a1.825 1.825 0 0 1-.703-.744Zm3.164-2.449c0-.836-.133-1.467-.399-1.893-.261-.426-.652-.639-1.172-.639-.523 0-.919.215-1.189.645-.27.426-.404 1.055-.404 1.887 0 .828.134 1.457.404 1.886.27.43.666.645 1.189.645.52 0 .911-.213 1.172-.639.266-.426.399-1.056.399-1.892ZM189.893 115.443h1.828v2.116h-1.828v-2.116Zm0 4.424h1.828V122h-1.828v-2.133ZM199.818 113.252h1.114l-4.606 9.861h-1.119l4.611-9.861ZM207.049 113.252h1.113l-4.605 9.861h-1.119l4.611-9.861ZM213.283 119.627c0 .484.088.85.264 1.096.18.246.443.369.791.369h1.26V122h-1.366c-.644 0-1.144-.205-1.5-.615-.351-.414-.527-1-.527-1.758v-5.936h-1.728v-.843h2.806v6.779ZM219.91 116.193c-.547 0-.961.213-1.242.639-.281.426-.422 1.057-.422 1.893 0 .832.141 1.463.422 1.892.281.426.695.639 1.242.639.551 0 .967-.213 1.248-.639.281-.429.422-1.06.422-1.892 0-.836-.141-1.467-.422-1.893-.281-.426-.697-.639-1.248-.639Zm0-.914c.91 0 1.606.295 2.086.885.484.59.727 1.443.727 2.561 0 1.121-.241 1.976-.721 2.566-.481.586-1.178.879-2.092.879-.91 0-1.605-.293-2.086-.879-.48-.59-.72-1.445-.72-2.566 0-1.118.24-1.971.72-2.561.481-.59 1.176-.885 2.086-.885ZM229.748 121.666a3.644 3.644 0 0 1-.896.375 3.442 3.442 0 0 1-.938.129c-1.016 0-1.81-.305-2.385-.914-.57-.61-.855-1.453-.855-2.531 0-1.079.285-1.922.855-2.532.575-.609 1.369-.914 2.385-.914.316 0 .625.041.926.123.301.082.603.209.908.381v1.131a2.915 2.915 0 0 0-.861-.551 2.626 2.626 0 0 0-.973-.17c-.676 0-1.195.219-1.559.657-.363.437-.544 1.062-.544 1.875 0 .808.181 1.433.544 1.875.368.437.887.656 1.559.656.375 0 .711-.057 1.008-.17.297-.117.572-.297.826-.539v1.119ZM234.875 118.701h-.357c-.629 0-1.104.111-1.424.334-.317.219-.475.547-.475.985 0 .394.119.701.358.919.238.219.568.329.99.329.594 0 1.06-.206 1.4-.616.34-.414.512-.984.516-1.711v-.24h-1.008Zm2.092-.445V122h-1.084v-.973c-.231.391-.522.68-.873.868-.348.183-.772.275-1.272.275-.668 0-1.201-.188-1.599-.563-.399-.378-.598-.884-.598-1.517 0-.731.244-1.285.732-1.664.493-.379 1.213-.569 2.163-.569h1.447v-.169c-.004-.524-.137-.903-.399-1.137-.261-.239-.679-.358-1.254-.358-.367 0-.738.053-1.113.159-.375.105-.74.259-1.096.462v-1.078c.399-.152.78-.265 1.143-.34a5.128 5.128 0 0 1 1.066-.117c.543 0 1.006.08 1.389.241.387.16.699.4.938.72.148.196.254.438.316.727.063.285.094.715.094 1.289ZM242.205 119.627c0 .484.088.85.264 1.096.179.246.443.369.791.369h1.26V122h-1.366c-.644 0-1.144-.205-1.5-.615-.351-.414-.527-1-.527-1.758v-5.936h-1.729v-.843h2.807v6.779ZM251.381 117.934V122h-1.084v-4.066c0-.59-.104-1.024-.311-1.301-.207-.278-.531-.416-.972-.416-.504 0-.893.179-1.166.539-.27.355-.405.867-.405 1.535V122h-1.078v-9.117h1.078v3.539c.192-.375.452-.658.78-.85.328-.195.716-.293 1.166-.293.668 0 1.166.221 1.494.662.332.438.498 1.102.498 1.993ZM256.062 116.193c-.546 0-.96.213-1.242.639-.281.426-.422 1.057-.422 1.893 0 .832.141 1.463.422 1.892.282.426.696.639 1.242.639.551 0 .967-.213 1.249-.639.281-.429.421-1.06.421-1.892 0-.836-.14-1.467-.421-1.893-.282-.426-.698-.639-1.249-.639Zm0-.914c.911 0 1.606.295 2.086.885.485.59.727 1.443.727 2.561 0 1.121-.24 1.976-.721 2.566-.48.586-1.177.879-2.092.879-.91 0-1.605-.293-2.085-.879-.481-.59-.721-1.445-.721-2.566 0-1.118.24-1.971.721-2.561.48-.59 1.175-.885 2.085-.885ZM265.385 115.666v1.055a4.105 4.105 0 0 0-.932-.405 3.469 3.469 0 0 0-.955-.134c-.488 0-.853.08-1.096.24-.238.156-.357.396-.357.721 0 .293.09.511.269.656.18.144.627.285 1.342.422l.434.082c.535.101.939.304 1.213.609.277.305.416.701.416 1.19 0 .648-.231 1.156-.692 1.523-.461.363-1.101.545-1.922.545-.324 0-.664-.035-1.019-.106a8.962 8.962 0 0 1-1.154-.304v-1.114c.402.208.787.364 1.154.469a3.9 3.9 0 0 0 1.043.153c.476 0 .846-.096 1.107-.288.262-.195.393-.466.393-.814 0-.5-.479-.846-1.436-1.037l-.047-.012-.404-.082c-.621-.121-1.074-.324-1.359-.609-.285-.289-.428-.682-.428-1.178 0-.629.213-1.113.639-1.453.426-.344 1.033-.516 1.822-.516.352 0 .689.033 1.014.1.324.062.642.158.955.287ZM270.512 113.574v1.864h2.449v.837h-2.449v3.563c0 .484.092.822.275 1.014.184.191.504.287.961.287h1.213V122h-1.318c-.809 0-1.379-.162-1.711-.486-.332-.325-.498-.883-.498-1.676v-3.563h-1.752v-.837h1.752v-1.864h1.078ZM276.658 115.443h1.828v2.116h-1.828v-2.116Zm0 4.424h1.828V122h-1.828v-2.133ZM282.189 113.252h5.508v.504L284.568 122h-1.236l3.047-7.752h-4.19v-.996ZM289.42 113.252h5.508v.504L291.799 122h-1.237l3.047-7.752h-4.189v-.996ZM296.65 113.252h5.508v.504L299.029 122h-1.236l3.047-7.752h-4.19v-.996ZM304.648 121.01h1.84v-6.61l-2.203 1.061v-1.137l2.192-1.043h1.183v7.729h1.817v.99h-4.829v-.99ZM315.834 112.936v3.585h-1.313v-3.585h1.313Zm-3.123 0v3.585h-1.313v-3.585h1.313Z"/><path fill="#fff" d="m326.475 113.252 4.605 9.861h-1.113l-4.612-9.861h1.12ZM54.453 133.869c.305.078.565.227.78.445.214.215.482.647.802 1.295l1.19 2.391h-1.272l-1.043-2.209c-.3-.629-.572-1.033-.814-1.213-.239-.183-.551-.275-.938-.275h-1.13V138h-1.19v-8.748h2.437c.961 0 1.698.217 2.21.65.511.434.767 1.061.767 1.881 0 .578-.158 1.051-.475 1.418-.312.363-.754.586-1.324.668Zm-2.426-3.644v3.105h1.295c.567 0 .988-.127 1.266-.381.277-.254.416-.642.416-1.166 0-.504-.148-.888-.445-1.154-.293-.27-.721-.404-1.284-.404h-1.248ZM58.385 129.252h5.191v.996h-4.008v2.356H63.4v.996h-3.832v3.404h4.12V138h-5.303v-8.748ZM67.016 137.027c.996 0 1.691-.244 2.086-.732.394-.492.591-1.379.591-2.66 0-1.293-.197-2.184-.591-2.672-.391-.492-1.086-.738-2.086-.738h-.563v6.802h.563Zm.023-7.775c1.336 0 2.32.355 2.953 1.066.633.711.95 1.817.95 3.317 0 1.492-.317 2.594-.95 3.304-.633.707-1.617 1.061-2.953 1.061h-1.775v-8.748h1.775ZM72.87 129.252h4.857v.996h-1.834v6.756h1.834V138h-4.858v-.996h1.834v-6.756H72.87v-.996ZM84.852 129.551v1.201a4.678 4.678 0 0 0-1.084-.522 3.5 3.5 0 0 0-1.09-.175c-.559 0-1 .131-1.325.392-.324.258-.486.608-.486 1.049 0 .387.106.682.317.885.214.203.613.373 1.195.51l.621.14c.82.192 1.418.492 1.793.903.375.41.563.968.563 1.675 0 .832-.258 1.467-.774 1.905-.516.437-1.266.656-2.25.656-.41 0-.822-.045-1.236-.135a6.823 6.823 0 0 1-1.248-.392v-1.26c.449.285.873.494 1.271.627.403.133.807.199 1.213.199.598 0 1.063-.133 1.395-.398.332-.27.498-.645.498-1.125 0-.438-.116-.772-.346-1.002-.227-.231-.623-.409-1.19-.534l-.632-.146c-.813-.184-1.403-.461-1.77-.832-.367-.371-.55-.869-.55-1.494 0-.782.261-1.407.785-1.875.527-.473 1.226-.709 2.097-.709.336 0 .69.039 1.06.117a7.64 7.64 0 0 1 1.173.34ZM93.324 139.113v.996h-7.172v-.996h7.172ZM95.72 130.225v3.287h1.372c.547 0 .972-.145 1.277-.434.309-.289.463-.693.463-1.213 0-.519-.152-.922-.457-1.207-.305-.289-.732-.433-1.283-.433H95.72Zm-1.183-.973h2.555c.976 0 1.717.223 2.22.668.504.441.756 1.09.756 1.945 0 .864-.252 1.516-.755 1.957-.5.442-1.24.662-2.221.662H95.72V138h-1.184v-8.748ZM105.916 133.635c0-1.285-.133-2.203-.398-2.754-.262-.551-.694-.826-1.295-.826-.598 0-1.03.275-1.295.826-.262.551-.393 1.469-.393 2.754 0 1.281.131 2.197.393 2.748.265.551.697.826 1.295.826.601 0 1.033-.273 1.295-.82.265-.551.398-1.469.398-2.754Zm1.236 0c0 1.523-.242 2.66-.726 3.41-.481.75-1.215 1.125-2.203 1.125-.989 0-1.723-.373-2.203-1.119-.481-.746-.721-1.885-.721-3.416 0-1.528.24-2.666.721-3.416.484-.75 1.218-1.125 2.203-1.125.988 0 1.722.375 2.203 1.125.484.75.726 1.888.726 3.416ZM112.297 133.869c.305.078.564.227.779.445.215.215.483.647.803 1.295l1.189 2.391h-1.271l-1.043-2.209c-.301-.629-.572-1.033-.815-1.213-.238-.183-.55-.275-.937-.275h-1.131V138h-1.189v-8.748h2.437c.961 0 1.697.217 2.209.65.512.434.768 1.061.768 1.881 0 .578-.158 1.051-.475 1.418-.312.363-.754.586-1.324.668Zm-2.426-3.644v3.105h1.295c.566 0 .988-.127 1.266-.381.277-.254.416-.642.416-1.166 0-.504-.149-.888-.446-1.154-.293-.27-.72-.404-1.283-.404h-1.248ZM115.35 129.252h6.673v.996h-2.736V138h-1.189v-7.752h-2.748v-.996ZM122.82 135.07h6.194v.991h-6.194v-.991Zm0-2.759h6.194v.99h-6.194v-.99ZM135.342 129.445v1.09a3.167 3.167 0 0 0-.785-.328 3.196 3.196 0 0 0-.868-.117c-.75 0-1.318.283-1.705.849-.386.563-.58 1.393-.58 2.491.188-.391.448-.69.78-.897a2.081 2.081 0 0 1 1.142-.316c.844 0 1.496.26 1.957.779.465.516.697 1.248.697 2.197 0 .946-.238 1.678-.714 2.198-.477.519-1.147.779-2.01.779-1.016 0-1.76-.363-2.233-1.09-.472-.73-.709-1.879-.709-3.445 0-1.477.284-2.602.85-3.375.57-.778 1.395-1.166 2.473-1.166.289 0 .578.031.867.094.289.058.568.144.838.257Zm-2.11 3.698c-.503 0-.9.181-1.189.545-.289.363-.434.865-.434 1.505 0 .641.145 1.143.434 1.506.289.363.686.545 1.189.545.524 0 .918-.172 1.184-.515.266-.348.398-.86.398-1.536 0-.679-.132-1.191-.398-1.535-.266-.344-.66-.515-1.184-.515ZM141.312 133.318c.575.153 1.014.424 1.319.815.305.387.457.871.457 1.453 0 .805-.272 1.437-.815 1.898-.539.457-1.287.686-2.244.686-.402 0-.812-.037-1.23-.111a7.994 7.994 0 0 1-1.231-.323v-1.177c.399.207.791.361 1.178.462.387.102.772.153 1.154.153.649 0 1.147-.147 1.495-.44.347-.293.521-.714.521-1.265 0-.508-.174-.91-.521-1.207-.348-.301-.819-.451-1.413-.451h-.902v-.973h.902c.543 0 .967-.119 1.272-.358.305-.238.457-.57.457-.996 0-.449-.143-.793-.428-1.031-.281-.242-.683-.363-1.207-.363a5.24 5.24 0 0 0-1.078.117c-.371.078-.76.195-1.166.352v-1.09a14.4 14.4 0 0 1 1.26-.281c.371-.063.699-.094.984-.094.852 0 1.531.215 2.039.644.512.426.768.992.768 1.7 0 .48-.135.88-.404 1.201-.266.32-.655.547-1.167.679ZM147.605 133.846c-.527 0-.935.148-1.224.445-.285.293-.428.709-.428 1.248s.145.959.434 1.26c.293.297.699.445 1.218.445.532 0 .94-.146 1.225-.439.289-.297.434-.719.434-1.266 0-.535-.147-.951-.44-1.248-.289-.297-.695-.445-1.219-.445Zm-1.031-.492c-.504-.129-.898-.37-1.183-.721-.282-.352-.422-.776-.422-1.272 0-.695.236-1.246.709-1.652.472-.41 1.115-.615 1.927-.615.817 0 1.461.205 1.934.615.473.406.709.957.709 1.652 0 .496-.143.92-.428 1.272-.281.351-.674.592-1.177.721.586.128 1.033.388 1.341.779.313.39.469.896.469 1.517 0 .789-.252 1.407-.756 1.852-.504.445-1.201.668-2.092.668-.89 0-1.587-.221-2.091-.662-.5-.446-.75-1.061-.75-1.846 0-.625.154-1.133.463-1.523.312-.395.761-.657 1.347-.785Zm-.428-1.881c0 .468.125.826.375 1.072.25.246.612.369 1.084.369.477 0 .84-.123 1.09-.369.25-.246.375-.604.375-1.072 0-.477-.125-.84-.375-1.09-.246-.25-.609-.375-1.09-.375-.472 0-.834.127-1.084.381-.25.25-.375.611-.375 1.084ZM154.836 129.123c.934 0 1.639.381 2.115 1.143.481.761.721 1.888.721 3.38 0 1.493-.24 2.62-.721 3.381-.476.762-1.181 1.143-2.115 1.143-.934 0-1.639-.381-2.115-1.143-.477-.761-.715-1.888-.715-3.381 0-1.492.238-2.619.715-3.38.476-.762 1.181-1.143 2.115-1.143Zm0 8.109c.555 0 .967-.294 1.236-.884.274-.59.41-1.491.41-2.702 0-.644-.039-1.226-.117-1.746l-2.789 4.366c.293.644.713.966 1.26.966Zm0-7.171c-.551 0-.963.294-1.236.884-.27.59-.405 1.491-.405 2.701 0 .551.037 1.067.112 1.547l2.73-4.353c-.297-.52-.697-.779-1.201-.779ZM167.404 129.252l4.606 9.861h-1.114l-4.611-9.861h1.119ZM51.154 145.252h5.192v.996h-4.008v2.356h3.832v.996h-3.832v3.404h4.119V154h-5.303v-8.748ZM57.342 145.281h1.617l3.422 7.178v-7.178h1.26V154h-1.618l-3.421-7.178V154h-1.26v-8.719ZM70.93 153.279a3.293 3.293 0 0 1-1.073.668 3.602 3.602 0 0 1-1.283.223c-1.11 0-1.972-.397-2.59-1.19-.617-.796-.925-1.912-.925-3.345 0-1.43.312-2.543.937-3.34.625-.801 1.494-1.201 2.608-1.201a3.607 3.607 0 0 1 2.027.627v1.213a3.295 3.295 0 0 0-.973-.663 2.622 2.622 0 0 0-1.055-.216c-.769 0-1.347.299-1.734.896-.383.594-.574 1.488-.574 2.684 0 1.215.186 2.115.557 2.701.375.582.949.873 1.722.873.262 0 .49-.029.686-.088.199-.062.379-.158.539-.287v-2.35h-1.272v-.972h2.403v3.767ZM72.87 145.252h4.857v.996h-1.834v6.756h1.834V154h-4.858v-.996h1.834v-6.756H72.87v-.996ZM79.033 145.281h1.617l3.422 7.178v-7.178h1.26V154h-1.617l-3.422-7.178V154h-1.26v-8.719ZM87.307 145.252h5.191v.996H88.49v2.356h3.832v.996H88.49v3.404h4.12V154h-5.303v-8.748ZM100.555 155.113v.996h-7.172v-.996h7.172ZM102.951 146.225v3.287h1.371c.547 0 .973-.145 1.278-.434.308-.289.462-.693.462-1.213 0-.519-.152-.922-.457-1.207-.304-.289-.732-.433-1.283-.433h-1.371Zm-1.183-.973h2.554c.977 0 1.717.223 2.221.668.504.441.756 1.09.756 1.945 0 .864-.252 1.516-.756 1.957-.5.442-1.24.662-2.221.662h-1.371V154h-1.183v-8.748ZM113.146 149.635c0-1.285-.132-2.203-.398-2.754-.262-.551-.693-.826-1.295-.826-.598 0-1.029.275-1.295.826-.262.551-.392 1.469-.392 2.754 0 1.281.13 2.197.392 2.748.266.551.697.826 1.295.826.602 0 1.033-.273 1.295-.82.266-.551.398-1.469.398-2.754Zm1.237 0c0 1.523-.242 2.66-.727 3.41-.48.75-1.215 1.125-2.203 1.125-.988 0-1.723-.373-2.203-1.119-.48-.746-.721-1.885-.721-3.416 0-1.528.241-2.666.721-3.416.484-.75 1.219-1.125 2.203-1.125.988 0 1.723.375 2.203 1.125.485.75.727 1.888.727 3.416ZM119.527 149.869c.305.078.565.227.78.445.214.215.482.647.802 1.295l1.19 2.391h-1.272l-1.043-2.209c-.3-.629-.572-1.033-.814-1.213-.238-.183-.551-.275-.938-.275h-1.13V154h-1.19v-8.748h2.438c.961 0 1.697.217 2.209.65.511.434.767 1.061.767 1.881 0 .578-.158 1.051-.474 1.418-.313.363-.754.586-1.325.668Zm-2.425-3.644v3.105h1.294c.567 0 .989-.127 1.266-.381s.416-.642.416-1.166c0-.504-.148-.888-.445-1.154-.293-.27-.721-.404-1.283-.404h-1.248ZM122.58 145.252h6.674v.996h-2.736V154h-1.19v-7.752h-2.748v-.996ZM130.051 151.07h6.193v.991h-6.193v-.991Zm0-2.759h6.193v.99h-6.193v-.99ZM141.312 149.318c.575.153 1.014.424 1.319.815.305.387.457.871.457 1.453 0 .805-.272 1.437-.815 1.898-.539.457-1.287.686-2.244.686-.402 0-.812-.037-1.23-.111a7.994 7.994 0 0 1-1.231-.323v-1.177c.399.207.791.361 1.178.462.387.102.772.153 1.154.153.649 0 1.147-.147 1.495-.44.347-.293.521-.714.521-1.265 0-.508-.174-.91-.521-1.207-.348-.301-.819-.451-1.413-.451h-.902v-.973h.902c.543 0 .967-.119 1.272-.358.305-.238.457-.57.457-.996 0-.449-.143-.793-.428-1.031-.281-.242-.683-.363-1.207-.363a5.24 5.24 0 0 0-1.078.117c-.371.078-.76.195-1.166.352v-1.09a14.4 14.4 0 0 1 1.26-.281c.371-.063.699-.094.984-.094.852 0 1.531.215 2.039.644.512.426.768.992.768 1.7 0 .48-.135.88-.404 1.201-.266.32-.655.547-1.167.679ZM147.605 145.123c.934 0 1.639.381 2.116 1.143.48.761.72 1.888.72 3.38 0 1.493-.24 2.62-.72 3.381-.477.762-1.182 1.143-2.116 1.143-.933 0-1.638-.381-2.115-1.143-.476-.761-.715-1.888-.715-3.381 0-1.492.239-2.619.715-3.38.477-.762 1.182-1.143 2.115-1.143Zm0 8.109c.555 0 .967-.294 1.237-.884.273-.59.41-1.491.41-2.702 0-.644-.039-1.226-.117-1.746l-2.789 4.366c.293.644.713.966 1.259.966Zm0-7.171c-.55 0-.962.294-1.236.884-.269.59-.404 1.491-.404 2.701 0 .551.037 1.067.111 1.547l2.731-4.353c-.297-.52-.698-.779-1.202-.779ZM154.836 145.123c.934 0 1.639.381 2.115 1.143.481.761.721 1.888.721 3.38 0 1.493-.24 2.62-.721 3.381-.476.762-1.181 1.143-2.115 1.143-.934 0-1.639-.381-2.115-1.143-.477-.761-.715-1.888-.715-3.381 0-1.492.238-2.619.715-3.38.476-.762 1.181-1.143 2.115-1.143Zm0 8.109c.555 0 .967-.294 1.236-.884.274-.59.41-1.491.41-2.702 0-.644-.039-1.226-.117-1.746l-2.789 4.366c.293.644.713.966 1.26.966Zm0-7.171c-.551 0-.963.294-1.236.884-.27.59-.405 1.491-.405 2.701 0 .551.037 1.067.112 1.547l2.73-4.353c-.297-.52-.697-.779-1.201-.779ZM162.066 145.123c.934 0 1.639.381 2.116 1.143.48.761.72 1.888.72 3.38 0 1.493-.24 2.62-.72 3.381-.477.762-1.182 1.143-2.116 1.143-.933 0-1.638-.381-2.115-1.143-.476-.761-.715-1.888-.715-3.381 0-1.492.239-2.619.715-3.38.477-.762 1.182-1.143 2.115-1.143Zm0 8.109c.555 0 .967-.294 1.237-.884.273-.59.41-1.491.41-2.702 0-.644-.039-1.226-.117-1.746l-2.789 4.366c.293.644.713.966 1.259.966Zm0-7.171c-.55 0-.962.294-1.236.884-.269.59-.404 1.491-.404 2.701 0 .551.037 1.067.111 1.547l2.731-4.353c-.297-.52-.698-.779-1.202-.779ZM174.635 145.252l4.605 9.861h-1.113l-4.611-9.861h1.119ZM51.852 163.461h2.76v5.701h2.138V170h-5.355v-.838h2.138v-4.863h-1.681v-.838Zm1.681-2.549h1.078v1.359h-1.078v-1.359ZM61.443 167.627c0 .484.088.85.264 1.096.18.246.443.369.791.369h1.26V170h-1.365c-.645 0-1.145-.205-1.5-.615-.352-.414-.528-1-.528-1.758v-5.936h-1.728v-.843h2.806v6.779ZM66.658 169.174v3.322h-1.084v-9.058h1.084v.837c.18-.324.418-.57.715-.738.3-.172.646-.258 1.037-.258.793 0 1.414.307 1.863.92.454.613.68 1.463.68 2.549 0 1.066-.226 1.904-.68 2.514-.453.605-1.074.908-1.863.908-.398 0-.748-.084-1.049-.252a1.826 1.826 0 0 1-.703-.744Zm3.164-2.449c0-.836-.133-1.467-.398-1.893-.262-.426-.653-.639-1.172-.639-.523 0-.92.215-1.19.645-.269.426-.404 1.055-.404 1.887 0 .828.135 1.457.404 1.886.27.43.666.645 1.19.645.52 0 .91-.213 1.172-.639.265-.426.398-1.056.398-1.892ZM72.29 165.758h6.21v.99h-6.21v-.99ZM84.623 163.666v1.055a4.102 4.102 0 0 0-.932-.405 3.471 3.471 0 0 0-.955-.134c-.488 0-.853.08-1.095.24-.239.156-.358.396-.358.721 0 .293.09.511.27.656.18.144.627.285 1.341.422l.434.082c.535.101.94.304 1.213.609.277.305.416.701.416 1.19 0 .648-.23 1.156-.691 1.523-.461.363-1.102.545-1.922.545-.325 0-.664-.035-1.02-.106a8.995 8.995 0 0 1-1.154-.304v-1.114a6.3 6.3 0 0 0 1.154.469c.367.102.715.153 1.043.153.477 0 .846-.096 1.108-.288.261-.195.392-.466.392-.814 0-.5-.478-.846-1.435-1.037l-.047-.012-.404-.082c-.622-.121-1.075-.324-1.36-.609-.285-.289-.428-.682-.428-1.178 0-.629.213-1.113.639-1.453.426-.344 1.033-.516 1.822-.516.352 0 .69.033 1.014.1.324.062.642.158.955.287ZM92.715 166.18v.527h-4.67v.035c-.031.895.139 1.537.51 1.928.375.391.902.586 1.582.586.344 0 .703-.055 1.078-.164.375-.11.775-.276 1.201-.498v1.072a7.03 7.03 0 0 1-1.19.375 4.972 4.972 0 0 1-1.101.129c-1.02 0-1.816-.305-2.39-.914-.575-.613-.862-1.457-.862-2.531 0-1.047.281-1.883.844-2.508.562-.625 1.312-.938 2.25-.938.836 0 1.494.283 1.974.85.485.566.743 1.25.774 2.051Zm-1.078-.317a2.069 2.069 0 0 0-.498-1.172c-.282-.332-.688-.498-1.22-.498-.519 0-.946.172-1.282.516-.336.344-.52.73-.551 1.16l3.55-.006ZM96.98 161.574v1.864h2.45v.837h-2.45v3.563c0 .484.092.822.276 1.014.183.191.504.287.96.287h1.214V170H98.11c-.808 0-1.379-.162-1.71-.486-.333-.325-.499-.883-.499-1.676v-3.563H94.15v-.837h1.752v-1.864h1.079ZM104.211 161.574v1.864h2.449v.837h-2.449v3.563c0 .484.092.822.275 1.014.184.191.504.287.961.287h1.213V170h-1.318c-.809 0-1.379-.162-1.711-.486-.332-.325-.498-.883-.498-1.676v-3.563h-1.752v-.837h1.752v-1.864h1.078ZM112.057 167.627c0 .484.088.85.263 1.096.18.246.444.369.791.369h1.26V170h-1.365c-.645 0-1.145-.205-1.5-.615-.352-.414-.527-1-.527-1.758v-5.936h-1.729v-.843h2.807v6.779ZM121.637 166.18v.527h-4.67v.035c-.031.895.138 1.537.51 1.928.375.391.902.586 1.582.586.343 0 .703-.055 1.078-.164.375-.11.775-.276 1.201-.498v1.072c-.41.168-.807.293-1.19.375a4.964 4.964 0 0 1-1.101.129c-1.02 0-1.817-.305-2.391-.914-.574-.613-.861-1.457-.861-2.531 0-1.047.281-1.883.844-2.508.562-.625 1.312-.938 2.25-.938.836 0 1.494.283 1.974.85.485.566.742 1.25.774 2.051Zm-1.078-.317a2.07 2.07 0 0 0-.498-1.172c-.282-.332-.688-.498-1.219-.498-.52 0-.947.172-1.283.516-.336.344-.52.73-.551 1.16l3.551-.006ZM126.266 164.105c.132-.281.3-.488.504-.621.207-.136.455-.205.744-.205.527 0 .898.205 1.113.616.219.406.328 1.173.328 2.302V170h-.984v-3.756c0-.926-.053-1.5-.159-1.723-.101-.226-.289-.339-.562-.339-.312 0-.527.121-.645.363-.113.238-.169.805-.169 1.699V170h-.985v-3.756c0-.937-.056-1.515-.17-1.734-.109-.219-.308-.328-.597-.328-.286 0-.485.121-.598.363-.109.238-.164.805-.164 1.699V170h-.979v-6.562h.979V164a1.43 1.43 0 0 1 .48-.533c.196-.125.416-.188.662-.188.297 0 .543.069.739.205.199.137.353.344.463.621ZM136.098 166.18v.527h-4.67v.035c-.032.895.138 1.537.51 1.928.374.391.902.586 1.582.586.343 0 .703-.055 1.078-.164.375-.11.775-.276 1.201-.498v1.072c-.41.168-.807.293-1.19.375a4.97 4.97 0 0 1-1.101.129c-1.02 0-1.817-.305-2.391-.914-.574-.613-.861-1.457-.861-2.531 0-1.047.281-1.883.844-2.508.562-.625 1.312-.938 2.25-.938.836 0 1.494.283 1.974.85.485.566.742 1.25.774 2.051Zm-1.078-.317a2.065 2.065 0 0 0-.499-1.172c-.281-.332-.687-.498-1.218-.498-.52 0-.948.172-1.283.516-.336.344-.52.73-.551 1.16l3.551-.006ZM142.924 165.934V170h-1.084v-4.066c0-.59-.104-1.024-.311-1.301-.207-.278-.531-.416-.972-.416-.504 0-.893.179-1.166.539-.27.355-.405.867-.405 1.535V170h-1.078v-6.562h1.078v.984c.192-.375.452-.658.78-.85.328-.195.716-.293 1.166-.293.668 0 1.166.221 1.494.662.332.438.498 1.102.498 1.993ZM147.594 161.574v1.864h2.449v.837h-2.449v3.563c0 .484.092.822.275 1.014.184.191.504.287.961.287h1.213V170h-1.318c-.809 0-1.379-.162-1.711-.486-.332-.325-.498-.883-.498-1.676v-3.563h-1.752v-.837h1.752v-1.864h1.078ZM151.824 165.758h6.211v.99h-6.211v-.99ZM165.008 163.438l-2.35 3.14 2.578 3.422h-1.248l-1.922-2.631L160.15 170h-1.248l2.578-3.422-2.349-3.14h1.195l1.74 2.373 1.729-2.373h1.213ZM172.455 164.791a2.43 2.43 0 0 0-.703-.393 2.398 2.398 0 0 0-.785-.123c-.672 0-1.186.211-1.541.633-.356.422-.533 1.031-.533 1.828V170h-1.084v-6.562h1.084v1.283c.179-.465.455-.821.826-1.067.375-.25.818-.375 1.33-.375.265 0 .513.033.744.1.23.066.451.17.662.31v1.102ZM175.115 169.174v3.322h-1.084v-9.058h1.084v.837c.18-.324.418-.57.715-.738a2.054 2.054 0 0 1 1.037-.258c.793 0 1.414.307 1.863.92.454.613.68 1.463.68 2.549 0 1.066-.226 1.904-.68 2.514-.453.605-1.074.908-1.863.908-.398 0-.748-.084-1.049-.252a1.825 1.825 0 0 1-.703-.744Zm3.164-2.449c0-.836-.133-1.467-.398-1.893-.262-.426-.652-.639-1.172-.639-.523 0-.92.215-1.189.645-.27.426-.405 1.055-.405 1.887 0 .828.135 1.457.405 1.886.269.43.666.645 1.189.645.52 0 .91-.213 1.172-.639.265-.426.398-1.056.398-1.892ZM189.096 161.252l4.605 9.861h-1.113l-4.611-9.861h1.119Z"/><path fill="#FF417D" d="m53.205 180.686 2.438 3.275a1.9 1.9 0 0 0 .34-.727c.074-.293.11-.642.11-1.048 0-.125-.005-.325-.017-.598l-.006-.041h.961v.228c0 .629-.072 1.182-.216 1.659-.145.472-.364.88-.657 1.224l.996 1.342h-1.248l-.457-.639a3.413 3.413 0 0 1-1.031.61 3.365 3.365 0 0 1-1.166.199c-.844 0-1.541-.262-2.092-.785-.55-.528-.826-1.19-.826-1.987 0-.535.135-1.031.404-1.488.27-.457.676-.881 1.219-1.271a3.455 3.455 0 0 1-.434-.827 2.475 2.475 0 0 1-.14-.82c0-.586.193-1.049.58-1.388.39-.34.924-.51 1.6-.51.253 0 .507.023.761.07.258.047.524.115.797.205v1.072a2.609 2.609 0 0 0-.715-.334 2.612 2.612 0 0 0-.767-.111c-.38 0-.678.09-.897.27a.867.867 0 0 0-.328.714c0 .231.057.473.17.727.113.25.32.576.621.979Zm-.767.609c-.36.285-.63.588-.81.908a2.056 2.056 0 0 0-.263 1.014c0 .59.195 1.08.586 1.471.39.386.889.58 1.494.58.164 0 .336-.024.516-.071.18-.047.355-.115.527-.205a2.604 2.604 0 0 0 .457-.299l-2.508-3.398ZM57.746 180.369v-1.066l6.194 2.449v.973l-6.194 2.449v-1.072l4.98-1.858-4.98-1.875Z"/><path fill="#fff" d="M75.904 183.627c0 .484.088.85.264 1.096.18.246.443.369.791.369h1.26V186h-1.365c-.645 0-1.145-.205-1.5-.615-.352-.414-.528-1-.528-1.758v-5.936h-1.728v-.843h2.806v6.779ZM82.531 180.193c-.547 0-.96.213-1.242.639-.281.426-.422 1.057-.422 1.893 0 .832.14 1.463.422 1.892.281.426.695.639 1.242.639.551 0 .967-.213 1.248-.639.282-.429.422-1.06.422-1.892 0-.836-.14-1.467-.422-1.893-.281-.426-.697-.639-1.248-.639Zm0-.914c.91 0 1.606.295 2.086.885.485.59.727 1.443.727 2.561 0 1.121-.24 1.976-.721 2.566-.48.586-1.178.879-2.092.879-.91 0-1.605-.293-2.086-.879-.48-.59-.72-1.445-.72-2.566 0-1.118.24-1.971.72-2.561.48-.59 1.176-.885 2.086-.885ZM91.18 182.666c0-.809-.133-1.422-.399-1.84-.262-.422-.644-.633-1.148-.633-.527 0-.93.211-1.207.633-.278.418-.416 1.031-.416 1.84 0 .809.138 1.426.416 1.852.281.421.687.632 1.218.632.497 0 .875-.212 1.137-.638.266-.426.399-1.041.399-1.846Zm1.078 2.912c0 .984-.233 1.731-.697 2.238-.465.508-1.149.762-2.051.762-.297 0-.608-.027-.932-.082a6.9 6.9 0 0 1-.972-.24v-1.067c.382.18.73.313 1.042.399.313.086.6.129.862.129.582 0 1.006-.158 1.271-.475.266-.316.399-.818.399-1.506v-.779c-.172.367-.407.641-.703.82-.297.18-.659.27-1.084.27-.766 0-1.377-.307-1.834-.92-.457-.613-.686-1.434-.686-2.461 0-1.031.229-1.854.686-2.467.457-.613 1.068-.92 1.834-.92.421 0 .779.084 1.072.252.293.168.531.428.715.78v-.85h1.078v6.117ZM99.084 179.666v1.055a4.104 4.104 0 0 0-.932-.405 3.47 3.47 0 0 0-.955-.134c-.488 0-.853.08-1.095.24-.239.156-.358.396-.358.721 0 .293.09.511.27.656.18.144.627.285 1.342.422l.433.082c.535.101.94.304 1.213.609.277.305.416.701.416 1.19 0 .648-.23 1.156-.691 1.523-.461.363-1.102.545-1.922.545-.325 0-.664-.035-1.02-.106a8.987 8.987 0 0 1-1.154-.304v-1.114c.402.208.787.364 1.154.469a3.9 3.9 0 0 0 1.043.153c.477 0 .846-.096 1.108-.288.261-.195.392-.466.392-.814 0-.5-.478-.846-1.435-1.037l-.047-.012-.405-.082c-.62-.121-1.074-.324-1.359-.609-.285-.289-.428-.682-.428-1.178 0-.629.213-1.113.639-1.453.426-.344 1.033-.516 1.822-.516.352 0 .69.033 1.014.1.324.062.642.158.955.287ZM105.822 177.252h1.114l-4.606 9.861h-1.119l4.611-9.861ZM113.545 179.666v1.055a4.105 4.105 0 0 0-.932-.405 3.469 3.469 0 0 0-.955-.134c-.488 0-.853.08-1.096.24-.238.156-.357.396-.357.721 0 .293.09.511.27.656.179.144.627.285 1.341.422l.434.082c.535.101.939.304 1.213.609.277.305.416.701.416 1.19 0 .648-.231 1.156-.691 1.523-.461.363-1.102.545-1.922.545-.325 0-.664-.035-1.02-.106a9.004 9.004 0 0 1-1.154-.304v-1.114c.402.208.787.364 1.154.469a3.9 3.9 0 0 0 1.043.153c.477 0 .846-.096 1.107-.288.262-.195.393-.466.393-.814 0-.5-.478-.846-1.435-1.037l-.047-.012-.405-.082c-.621-.121-1.074-.324-1.359-.609-.285-.289-.428-.682-.428-1.178 0-.629.213-1.113.639-1.453.426-.344 1.033-.516 1.822-.516.352 0 .69.033 1.014.1.324.062.642.158.955.287ZM121.637 182.18v.527h-4.67v.035c-.031.895.138 1.537.51 1.928.375.391.902.586 1.582.586.343 0 .703-.055 1.078-.164.375-.11.775-.276 1.201-.498v1.072c-.41.168-.807.293-1.19.375a4.964 4.964 0 0 1-1.101.129c-1.02 0-1.817-.305-2.391-.914-.574-.613-.861-1.457-.861-2.531 0-1.047.281-1.883.844-2.508.562-.625 1.312-.938 2.25-.938.836 0 1.494.283 1.974.85.485.566.742 1.25.774 2.051Zm-1.078-.317a2.07 2.07 0 0 0-.498-1.172c-.282-.332-.688-.498-1.219-.498-.52 0-.947.172-1.283.516-.336.344-.52.73-.551 1.16l3.551-.006ZM125.902 177.574v1.864h2.45v.837h-2.45v3.563c0 .484.092.822.276 1.014.183.191.504.287.961.287h1.213V186h-1.319c-.808 0-1.379-.162-1.711-.486-.332-.325-.498-.883-.498-1.676v-3.563h-1.752v-.837h1.752v-1.864h1.078ZM133.133 177.574v1.864h2.449v.837h-2.449v3.563c0 .484.092.822.275 1.014.184.191.504.287.961.287h1.213V186h-1.318c-.809 0-1.379-.162-1.711-.486-.332-.325-.498-.883-.498-1.676v-3.563h-1.752v-.837h1.752v-1.864h1.078ZM140.979 183.627c0 .484.087.85.263 1.096.18.246.444.369.791.369h1.26V186h-1.365c-.645 0-1.145-.205-1.5-.615-.352-.414-.528-1-.528-1.758v-5.936h-1.728v-.843h2.807v6.779ZM150.559 182.18v.527h-4.67v.035c-.032.895.138 1.537.509 1.928.375.391.903.586 1.582.586.344 0 .704-.055 1.079-.164.375-.11.775-.276 1.201-.498v1.072c-.41.168-.807.293-1.19.375a4.97 4.97 0 0 1-1.101.129c-1.02 0-1.817-.305-2.391-.914-.574-.613-.861-1.457-.861-2.531 0-1.047.281-1.883.844-2.508.562-.625 1.312-.938 2.25-.938.835 0 1.494.283 1.974.85.485.566.742 1.25.774 2.051Zm-1.079-.317a2.057 2.057 0 0 0-.498-1.172c-.281-.332-.687-.498-1.218-.498-.52 0-.948.172-1.284.516-.335.344-.519.73-.55 1.16l3.55-.006ZM155.188 180.105c.132-.281.3-.488.503-.621.207-.136.455-.205.745-.205.527 0 .898.205 1.113.616.219.406.328 1.173.328 2.302V186h-.984v-3.756c0-.926-.053-1.5-.159-1.723-.101-.226-.289-.339-.562-.339-.313 0-.527.121-.645.363-.113.238-.17.805-.17 1.699V186h-.984v-3.756c0-.937-.057-1.515-.17-1.734-.109-.219-.308-.328-.598-.328-.285 0-.484.121-.597.363-.11.238-.164.805-.164 1.699V186h-.979v-6.562h.979V180a1.43 1.43 0 0 1 .48-.533c.196-.125.416-.188.662-.188.297 0 .543.069.739.205.199.137.353.344.463.621ZM165.02 182.18v.527h-4.67v.035c-.032.895.138 1.537.509 1.928.375.391.903.586 1.582.586.344 0 .704-.055 1.079-.164.375-.11.775-.276 1.201-.498v1.072c-.41.168-.807.293-1.19.375a4.97 4.97 0 0 1-1.101.129c-1.02 0-1.817-.305-2.391-.914-.574-.613-.861-1.457-.861-2.531 0-1.047.281-1.883.843-2.508.563-.625 1.313-.938 2.25-.938.836 0 1.495.283 1.975.85.484.566.742 1.25.774 2.051Zm-1.079-.317a2.057 2.057 0 0 0-.498-1.172c-.281-.332-.687-.498-1.218-.498-.52 0-.948.172-1.284.516-.336.344-.519.73-.55 1.16l3.55-.006ZM171.846 181.934V186h-1.084v-4.066c0-.59-.104-1.024-.311-1.301-.207-.278-.531-.416-.972-.416-.504 0-.893.179-1.167.539-.269.355-.404.867-.404 1.535V186h-1.078v-6.562h1.078v.984c.192-.375.451-.658.78-.85.328-.195.716-.293 1.166-.293.667 0 1.166.221 1.494.662.332.438.498 1.102.498 1.993ZM176.516 177.574v1.864h2.449v.837h-2.449v3.563c0 .484.091.822.275 1.014.184.191.504.287.961.287h1.213V186h-1.319c-.808 0-1.378-.162-1.71-.486-.332-.325-.498-.883-.498-1.676v-3.563h-1.752v-.837h1.752v-1.864h1.078ZM180.746 181.758h6.211v.99h-6.211v-.99ZM193.941 182.18v.527h-4.67v.035c-.031.895.139 1.537.51 1.928.375.391.903.586 1.582.586a3.86 3.86 0 0 0 1.078-.164 6.72 6.72 0 0 0 1.202-.498v1.072a7.056 7.056 0 0 1-1.19.375 4.97 4.97 0 0 1-1.101.129c-1.02 0-1.817-.305-2.391-.914-.574-.613-.861-1.457-.861-2.531 0-1.047.281-1.883.843-2.508.563-.625 1.313-.938 2.25-.938.836 0 1.495.283 1.975.85.484.566.742 1.25.773 2.051Zm-1.078-.317a2.07 2.07 0 0 0-.498-1.172c-.281-.332-.687-.498-1.219-.498-.519 0-.947.172-1.283.516-.336.344-.519.73-.551 1.16l3.551-.006ZM200.768 181.934V186h-1.084v-4.066c0-.59-.104-1.024-.311-1.301-.207-.278-.531-.416-.973-.416-.504 0-.892.179-1.166.539-.269.355-.404.867-.404 1.535V186h-1.078v-6.562h1.078v.984c.191-.375.451-.658.779-.85.329-.195.717-.293 1.166-.293.668 0 1.166.221 1.495.662.332.438.498 1.102.498 1.993ZM206.867 182.666c0-.809-.133-1.422-.398-1.84-.262-.422-.645-.633-1.149-.633-.527 0-.929.211-1.207.633-.277.418-.416 1.031-.416 1.84 0 .809.139 1.426.416 1.852.282.421.688.632 1.219.632.496 0 .875-.212 1.137-.638.265-.426.398-1.041.398-1.846Zm1.078 2.912c0 .984-.232 1.731-.697 2.238-.465.508-1.148.762-2.051.762a5.56 5.56 0 0 1-.931-.082 6.871 6.871 0 0 1-.973-.24v-1.067c.383.18.73.313 1.043.399.312.086.6.129.861.129.582 0 1.006-.158 1.272-.475.265-.316.398-.818.398-1.506v-.779c-.172.367-.406.641-.703.82-.297.18-.658.27-1.084.27-.766 0-1.377-.307-1.834-.92-.457-.613-.685-1.434-.685-2.461 0-1.031.228-1.854.685-2.467.457-.613 1.068-.92 1.834-.92.422 0 .779.084 1.072.252.293.168.532.428.715.78v-.85h1.078v6.117ZM210.922 179.461h2.76v5.701h2.138V186h-5.355v-.838h2.139v-4.863h-1.682v-.838Zm1.682-2.549h1.078v1.359h-1.078v-1.359ZM222.459 181.934V186h-1.084v-4.066c0-.59-.104-1.024-.311-1.301-.207-.278-.531-.416-.972-.416-.504 0-.893.179-1.166.539-.27.355-.405.867-.405 1.535V186h-1.078v-6.562h1.078v.984c.192-.375.452-.658.78-.85.328-.195.717-.293 1.166-.293.668 0 1.166.221 1.494.662.332.438.498 1.102.498 1.993ZM230.094 182.18v.527h-4.67v.035c-.031.895.138 1.537.51 1.928.375.391.902.586 1.582.586.343 0 .703-.055 1.078-.164.375-.11.775-.276 1.201-.498v1.072c-.41.168-.807.293-1.19.375a4.964 4.964 0 0 1-1.101.129c-1.02 0-1.816-.305-2.391-.914-.574-.613-.861-1.457-.861-2.531 0-1.047.281-1.883.844-2.508.562-.625 1.312-.938 2.25-.938.836 0 1.494.283 1.974.85.485.566.742 1.25.774 2.051Zm-1.078-.317a2.07 2.07 0 0 0-.498-1.172c-.282-.332-.688-.498-1.219-.498-.52 0-.947.172-1.283.516-.336.344-.52.73-.551 1.16l3.551-.006ZM231.359 181.758h6.211v.99h-6.211v-.99ZM244.543 179.438l-2.35 3.14 2.578 3.422h-1.248l-1.921-2.631-1.916 2.631h-1.248l2.578-3.422-2.35-3.14h1.195l1.741 2.373 1.728-2.373h1.213ZM251.99 180.791a2.43 2.43 0 0 0-.703-.393 2.398 2.398 0 0 0-.785-.123c-.672 0-1.186.211-1.541.633-.356.422-.533 1.031-.533 1.828V186h-1.084v-6.562h1.084v1.283c.179-.465.455-.821.826-1.067.375-.25.818-.375 1.33-.375.266 0 .514.033.744.1.231.066.451.17.662.31v1.102ZM254.65 185.174v3.322h-1.084v-9.058h1.084v.837c.18-.324.418-.57.715-.738a2.054 2.054 0 0 1 1.037-.258c.793 0 1.414.307 1.864.92.453.613.679 1.463.679 2.549 0 1.066-.226 1.904-.679 2.514-.454.605-1.075.908-1.864.908-.398 0-.748-.084-1.048-.252a1.827 1.827 0 0 1-.704-.744Zm3.164-2.449c0-.836-.132-1.467-.398-1.893-.262-.426-.652-.639-1.172-.639-.523 0-.92.215-1.189.645-.27.426-.405 1.055-.405 1.887 0 .828.135 1.457.405 1.886.269.43.666.645 1.189.645.52 0 .91-.213 1.172-.639.266-.426.398-1.056.398-1.892ZM263.896 183.627c0 .484.088.85.264 1.096.18.246.444.369.791.369h1.26V186h-1.365c-.645 0-1.145-.205-1.5-.615-.352-.414-.528-1-.528-1.758v-5.936h-1.728v-.843h2.806v6.779ZM269.193 183.633h2.063V186h-2.063v-2.367ZM278.357 183.627c0 .484.088.85.264 1.096.18.246.443.369.791.369h1.26V186h-1.365c-.645 0-1.145-.205-1.5-.615-.352-.414-.528-1-.528-1.758v-5.936h-1.728v-.843h2.806v6.779ZM284.984 180.193c-.546 0-.961.213-1.242.639-.281.426-.422 1.057-.422 1.893 0 .832.141 1.463.422 1.892.281.426.696.639 1.242.639.551 0 .967-.213 1.248-.639.282-.429.422-1.06.422-1.892 0-.836-.14-1.467-.422-1.893-.281-.426-.697-.639-1.248-.639Zm0-.914c.911 0 1.606.295 2.086.885.485.59.727 1.443.727 2.561 0 1.121-.24 1.976-.721 2.566-.48.586-1.178.879-2.092.879-.91 0-1.605-.293-2.086-.879-.48-.59-.72-1.445-.72-2.566 0-1.118.24-1.971.72-2.561.481-.59 1.176-.885 2.086-.885ZM293.633 182.666c0-.809-.133-1.422-.399-1.84-.261-.422-.644-.633-1.148-.633-.527 0-.93.211-1.207.633-.277.418-.416 1.031-.416 1.84 0 .809.139 1.426.416 1.852.281.421.687.632 1.219.632.496 0 .875-.212 1.136-.638.266-.426.399-1.041.399-1.846Zm1.078 2.912c0 .984-.232 1.731-.697 2.238-.465.508-1.149.762-2.051.762-.297 0-.608-.027-.932-.082a6.892 6.892 0 0 1-.972-.24v-1.067c.382.18.73.313 1.043.399.312.086.599.129.861.129.582 0 1.006-.158 1.271-.475.266-.316.399-.818.399-1.506v-.779c-.172.367-.406.641-.703.82-.297.18-.659.27-1.084.27-.766 0-1.377-.307-1.834-.92-.457-.613-.686-1.434-.686-2.461 0-1.031.229-1.854.686-2.467.457-.613 1.068-.92 1.834-.92.422 0 .779.084 1.072.252.293.168.531.428.715.78v-.85h1.078v6.117Z"/><path fill="#FF417D" d="m306.271 180.686 2.438 3.275c.152-.191.266-.434.34-.727.074-.293.111-.642.111-1.048 0-.125-.006-.325-.017-.598l-.006-.041h.961v.228c0 .629-.073 1.182-.217 1.659-.145.472-.363.88-.656 1.224l.996 1.342h-1.248l-.457-.639a3.417 3.417 0 0 1-1.032.61 3.364 3.364 0 0 1-1.166.199c-.843 0-1.541-.262-2.091-.785-.551-.528-.827-1.19-.827-1.987 0-.535.135-1.031.405-1.488.269-.457.675-.881 1.218-1.271a3.47 3.47 0 0 1-.433-.827 2.468 2.468 0 0 1-.141-.82c0-.586.194-1.049.58-1.388.391-.34.924-.51 1.6-.51.254 0 .508.023.762.07.257.047.523.115.797.205v1.072a2.617 2.617 0 0 0-.715-.334 2.617 2.617 0 0 0-.768-.111c-.379 0-.678.09-.896.27a.867.867 0 0 0-.329.714c0 .231.057.473.17.727.114.25.321.576.621.979Zm-.767.609c-.359.285-.629.588-.809.908a2.064 2.064 0 0 0-.263 1.014c0 .59.195 1.08.586 1.471.39.386.888.58 1.494.58.164 0 .336-.024.515-.071.18-.047.356-.115.528-.205a2.58 2.58 0 0 0 .457-.299l-2.508-3.398Z"/><path fill="url(#e)" d="M176.56 377.18H296.5l21.09 4.99-162.13.12 21.1-5.11Z"/><path fill="url(#f)" d="M316.49 384.94H156.56l-1.06-2.65 162.09-.12-1.1 2.77Z"/><path fill="#fff" d="M244.94 305.56a8.41 8.41 0 0 1-8.41 8.41c-4.64 0-8.42-3.77-8.42-8.41 0-4.64 3.76-8.42 8.42-8.42s8.41 3.77 8.41 8.42Z"/><defs><linearGradient id="a" x1="176.56" x2="296.5" y1="351.38" y2="351.38" gradientUnits="userSpaceOnUse"><stop stop-color="#7652E4"/><stop offset="1" stop-color="#009B9A"/></linearGradient><linearGradient id="b" x1="0" x2="473.05" y1="304.17" y2="304.17" gradientUnits="userSpaceOnUse"><stop stop-color="#7652E4"/><stop offset="1" stop-color="#FF7A4E"/></linearGradient><linearGradient id="c" x1="0" x2="473.05" y1="141.18" y2="141.18" gradientUnits="userSpaceOnUse"><stop stop-color="#009B9A"/><stop offset=".12" stop-color="#2285AF"/><stop offset=".3" stop-color="#4D6ACA"/><stop offset=".44" stop-color="#685ADB"/><stop offset=".53" stop-color="#7254E2"/><stop offset="1" stop-color="#009B9A"/></linearGradient><linearGradient id="d" x1="16.67" x2="456.38" y1="141.18" y2="141.18" gradientUnits="userSpaceOnUse"><stop offset=".2"/><stop offset=".58" stop-color="#0A1D40"/><stop offset=".77" stop-color="#00073E"/></linearGradient><linearGradient id="e" x1="155.46" x2="317.59" y1="379.74" y2="379.74" gradientUnits="userSpaceOnUse"><stop stop-color="#7652E4"/><stop offset="1" stop-color="#FF7A4E"/></linearGradient><linearGradient id="f" x1="155.5" x2="317.59" y1="383.55" y2="383.55" gradientUnits="userSpaceOnUse"><stop stop-color="#7652E4"/><stop offset="1" stop-color="#009B9A"/></linearGradient></defs></svg>
